<svg width="409" height="310" xmlns="http://www.w3.org/2000/svg"><defs><filter x="-11.2%" y="-15.6%" width="122.4%" height="131.2%" filterUnits="objectBoundingBox" id="a"><feOffset in="SourceAlpha" result="shadowOffsetOuter1"/><feGaussianBlur stdDeviation="13.5" in="shadowOffsetOuter1" result="shadowBlurOuter1"/><feColorMatrix values="0 0 0 0 0 0 0 0 0 0 0 0 0 0 0 0 0 0 1 0" in="shadowBlurOuter1" result="shadowMatrixOuter1"/><feMerge><feMergeNode in="shadowMatrixOuter1"/><feMergeNode in="SourceGraphic"/></feMerge></filter></defs><g filter="url(#a)" transform="translate(23 27)" fill="#FFF" fill-rule="evenodd"><path d="M66.566 162.13c.012-.3.018-.604.018-.91 0-16.44-16.065-20.832-27.2-22.001.03-5.09.879-11.266 3.124-18.514 4.305-13.907 15.86-28.149 19.031-30.383 3.64-2.564 7.794-4.495 14.939 1.405 4.137 3.414 67.724 48.263 71.698 51.73 3.974 3.466 5.428 7.834 4.345 11.326-1.085 3.493-5.945 7.347-10.934 7.347H66.566zm-43.68-23.245a551.03 551.03 0 0 0-7.55.222C26.586 60.569 94.397 0 176.108 0c89.554 0 162.41 72.753 162.41 162.178h-7.435c0-85.33-69.521-154.752-154.975-154.752-77.526 0-141.94 57.14-153.222 131.459zm287.913-17.793c5.172 17.085 2.66 28.186-.023 33.184-2.686 5.005-4.84 7.873-13.291 7.864-8.485-.01-80.68-.01-86.184.034-4.988.038-9.664-4.187-10.723-7.685-1.058-3.5.419-7.859 4.414-11.3 3.994-3.445 67.862-47.9 72.018-51.286 7.183-5.852 11.322-3.896 14.95-1.308 3.156 2.251 14.622 16.565 18.839 30.497zm-51.372-71.788c14.391 10.592 19.028 20.987 19.881 26.597.848 5.611.947 9.335-5.93 14.246-6.876 4.903-65.124 48.436-69.006 51.552-3.89 3.12-10.255 2.427-13.199.26-2.947-2.17-4.378-6.547-3.242-11.693 1.135-5.144 25.632-78.93 26.932-84.133 2.241-8.98 6.733-9.892 11.183-9.988 3.884-.085 21.647 4.525 33.38 13.16zM176.82 20.24c17.876 0 27.784 5.618 31.807 9.631 4.017 4.013 6.309 6.954 3.687 14.979-2.617 8.025-23.638 77.57-24.913 82.385-1.277 4.815-6.808 8.025-10.473 8.025-3.66 0-7.413-2.675-9.553-7.49-2.144-4.813-26.27-78.726-28.316-83.681-3.527-8.56-.455-11.951 3.073-14.668 3.074-2.364 20.115-9.18 34.688-9.18zM93.153 50.102c11.589-8.828 29.273-13.735 33.155-13.715 4.456.021 8.96.858 11.353 9.799 1.384 5.18 27.11 78.549 28.335 83.676 1.22 5.121-.137 9.521-3.05 11.741-2.909 2.219-9.257 3.019-13.198-.035-3.937-3.055-62.902-45.609-69.859-50.399-6.958-4.792-6.925-8.521-6.17-14.146.76-5.622 5.227-16.089 19.434-26.921z"/><path d="M269.69 193.667h4.12c9.06 0 12.952-3.641 12.952-11.377 0-9.487-5.315-11.689-14.001-11.689-1.346 0-2.096.077-3.07.152v22.914zm25.083-11.914c0 7.132-5.766 11.914-14.827 12.67 2.25.153 6.443 5.236 7.714 6.982l6.288 8.346c3.145 4.173 7.26 8.268 13.18 8.268v1.67H293.8c-1.273-.983-3.217-2.504-6.59-7.207l-7.786-10.85c-4.416-6.144-5.913-6.144-8.684-6.144h-1.05v11.149c0 9.715-.072 11.382 6.216 11.382h2.395v1.67h-23.732v-1.67h1.573c6.365 0 6.365-1.667 6.365-11.382v-24.654c0-11.078-.528-10.85-7.564-10.85v-1.666c5.314-.381 13.478-.685 18.342-.685 3.218 0 21.488-.307 21.488 12.97zM22.867 180.34h6.23c13.697 0 19.584-5.51 19.584-17.208 0-14.34-8.04-17.67-21.17-17.67-2.038 0-3.172.115-4.644.232v34.646zm37.927-18.011c0 10.78-8.72 18.011-22.417 19.157 3.4.227 9.737 7.914 11.663 10.555l9.506 12.62c4.753 6.31 10.984 12.505 19.924 12.505v2.523H59.322c-1.925-1.49-4.867-3.783-9.963-10.9l-11.774-16.405c-6.677-9.29-8.946-9.29-13.133-9.29h-1.585v16.862c0 14.687-.11 17.21 9.397 17.21h3.621v2.523H0v-2.523h2.376c9.626 0 9.626-2.523 9.626-17.21v-37.284c0-16.75-.795-16.409-11.437-16.409v-2.523c8.04-.573 20.38-1.032 27.74-1.032 4.865 0 32.49-.455 32.49 19.62zm185.841 41.731l-1.05 15.629H204.56v-1.67h.975c6.439 0 6.439-1.667 6.439-11.382v-24.654c0-9.938-.076-10.85-6.439-10.85v-1.667h35.488l1.121 12.517h-1.723c-2.394-10.7-5.987-10.85-14.37-10.85h-6.89v21.168h5.317c6.96 0 7.41-1.745 7.41-7.589h1.721v17.225h-1.72c0-7.588-1.648-7.966-7.34-7.966h-5.389v11.909c0 11.533.45 12.14 7.263 12.14h3.668c4.19 0 11.529 0 14.824-13.96h1.72zm-72.766-34.594h22.61v1.667h-1.05c-6.512 0-6.663.609-6.663 10.85v24.654c0 9.715 0 11.383 6.291 11.383h1.422v1.67h-22.61v-1.67h1.42c6.288 0 6.288-1.668 6.288-11.383v-24.654c0-10.168-.15-10.85-6.661-10.85h-1.047v-1.667zm-33.387 51.436l-18.792-44.078c-1.496-3.49-2.696-5.69-7.861-5.69v-1.668h21.338v1.667c-3.968 0-6.74.15-6.74 2.884 0 1.061.226 1.441 1.724 5.006l14.224 33.386 11.454-27.77c2.92-7.056 2.92-8.043 2.92-9.031 0-4.019-3.745-4.475-5.99-4.475v-1.667h15.122v1.667c-3.74 0-5.837 3.337-7.484 7.282l-17.593 42.487h-2.322zm-55.176-51.436h22.61v1.667h-1.048c-6.512 0-6.662.609-6.662 10.85v24.654c0 9.715 0 11.383 6.287 11.383h1.423v1.67h-22.61v-1.67h1.424c6.287 0 6.287-1.668 6.287-11.383v-24.654c0-10.168-.15-10.85-6.663-10.85h-1.048v-1.667zm257.155 30.043l-8.764-21.395-8.682 21.395h17.446zm-18.195 1.668l-2.923 7.36c-.445 1.215-1.195 3.72-1.195 4.78 0 2.429 1.723 4.702 5.389 4.702v1.67h-14.748v-1.67c2.097-.074 5.167-1.366 7.112-5.993l17.82-43.32h1.421l18.193 43.624c1.12 2.656 2.698 5.69 6.665 5.69v1.669h-19.539v-1.67c3.513 0 6.136.078 6.136-2.73 0-.835-.45-1.894-.972-3.107l-4.495-11.005h-18.864zm-30.023 49.717c-.164.088-.388.277-.675.572l.474-.505a.465.465 0 0 1 .179-.067h.022zm-.675.572l-.851.944c.18-.209.463-.522.85-.944zm-.851.944l-.048.043a.547.547 0 0 1-.178.11.202.202 0 0 0 .067-.153h.159zm13.235-11.823c-1.065 1.066-2.443 2.571-4.136 4.517-.465.484-1.1 1.215-1.91 2.194a1.31 1.31 0 0 1-.112.218l-.09.155c0 .013-.014.028-.047.042-.014.014-.018.014-.018 0v.088a.28.28 0 0 0 .065.178h3.168l.427.152-.156.198h-3.933c-.164 0-1.01 1.116-2.54 3.355-1.124 1.667-1.683 3.05-1.683 4.146 0 .1.229.152.696.152.928 0 2.701-1.105 5.326-3.311h.18c-3.013 2.926-5.506 4.388-7.484 4.388-.973 0-1.462-.41-1.462-1.229 0-.583.655-2.019 1.958-4.298.027-.059.082-.147.153-.266 0-.186-.035-.313-.11-.372l.046-.022-.07.022a.263.263 0 0 0-.088-.022l2.227-2.172v-.328h-2.227c-.074-.121-.223-.192-.449-.22h.607c.838 0 1.722-.057 2.651-.173.18-.133 1.313-1.362 3.393-3.687a35.09 35.09 0 0 1 2.381-2.367c1.14-1.041 2.128-1.56 2.964-1.56.183 0 .273.075.273.222zm-36.646 6.557c0-.252-.143-.475-.427-.68-.044 0-.11-.008-.19-.022a1.154 1.154 0 0 0-.192-.021c-1.319 0-2.414.382-3.28 1.14-.376.318-.659.59-.853.812-.376.422-.564.754-.564.987h.316a18.36 18.36 0 0 1 4.92-1.648c.18-.175.27-.364.27-.568zm2.112 5.22c-2.503 2.428-4.284 3.853-5.348 4.278.013-.207-.076-.308-.268-.308-.107 0-1.06.277-2.856.835v.263c.256 0 .64-.064 1.16-.187.515-.123.909-.186 1.176-.186h.092c-.84.45-1.7.678-2.586.678-.54 0-1.233-.227-2.09-.678-.942-.483-1.414-.944-1.414-1.382v-2.897c.302-.26.515-.579.651-.942.54-1.52 1.554-2.848 3.043-3.983 1.492-1.13 3.053-1.698 4.685-1.698 1.86 0 2.79.622 2.79 1.864 0 2.269-.617 3.403-1.844 3.403-.392 0-.586-.171-.586-.508 0-.117.054-.293.16-.527.102-.233.156-.422.156-.57 0-.218-.105-.754-.316-1.603-1.048 0-2.343.947-3.883 2.828-1.545 1.885-2.318 3.363-2.318 4.43 0 .689.467 1.035 1.395 1.035 2.11 0 4.792-1.381 8.043-4.144h.158zm-22.93 4.804h.405v-.263h-.405v.263zm6.495-7.851c0-1.025-.04-1.682-.112-1.974-.212-.716-.698-1.077-1.463-1.077-1.346 0-2.658.738-3.932 2.216v.308c.447 0 1.104-.166 1.954-.496.855-.33 1.506-.493 1.956-.493.075 0 .134.007.18.022l.158.09c-1.496.772-3.033 1.92-4.607 3.441-1.871 1.828-2.81 3.37-2.81 4.628v.242a.679.679 0 0 1 0 .266l.34.26c1.809 0 3.682-1.052 5.624-3.156a4.958 4.958 0 0 1 .972-1.889c.496-.524.991-1.046 1.49-1.556.167-.206.25-.482.25-.832zm2.695 3.311c0 .306-.5.724-1.505 1.247-.781.428-1.292.67-1.54.726-.247.058-.836.088-1.764.088.063 0-.564.482-1.876 1.447-1.31.965-2.572 1.45-3.786 1.45-.63 0-1.235-.185-1.818-.55-.767-.468-1.147-.922-1.147-1.36 0-.32.025-.792.078-1.416.053-.622.078-1.084.078-1.39 0-.178-.083-.256-.249-.242a252.47 252.47 0 0 1 2.114-3.05c.703-1.02 1.71-1.874 3.024-2.555 1.308-.68 2.596-1.018 3.851-1.018.752 0 1.325.225 1.733.678.148.176.472.724.965 1.647.388.73.586 1.174.586 1.337 0 .468-.108.868-.316 1.205a17.43 17.43 0 0 1-2.54 3.137v.218c.673 0 1.116-.033 1.324-.11.828-.29 1.755-.788 2.788-1.489zm43.455-24.59c0-.701-.348-1.052-1.049-1.052-.357 0-.873.183-1.544.548-.726.382-1.093.716-1.093 1.008 0 .147.126.318.373.517.244.196.37.353.37.47v.726c0 .308-.107.734-.315 1.295-.21.554-.317.987-.317 1.293h.36c2.144-2.107 3.215-3.709 3.215-4.804zm-5.752 1.338v-.307c-.826 0-1.857.635-3.1 1.909-.856.98-1.709 1.96-2.562 2.94v.262h.267l5.395-4.804zm-9.035 27.024c-.015.043-.03.067-.044.067h-.023a.34.34 0 0 1-.088-.067c0-.057.014-.095.044-.11.06 0 .096.029.11.088v.022zm1.842-8.642v-1.031c0-.205-.23-.307-.695-.307-.584 0-1.628.468-3.123 1.402v.308c.239 0 .58-.05 1.023-.151.44-.102.773-.157 1-.157h.11c.167.015.533.09 1.102.22l.248.045.09.043h-.022c.18 0 .267-.123.267-.372zm9.147-17.613v-.616c-.166-.304-.353-.46-.561-.46l-3.866 3.774a76.506 76.506 0 0 0-1.91 1.909l-2.876 3.442-5.751 6.888c-.212.25-.317.468-.317.658l.477.002 9.572-7.698c1.242-.98 2.374-2.173 3.39-3.577 1.23-1.684 1.842-3.122 1.842-4.322zm-11.144 19.741v-1.25c0-.178-.248-.264-.744-.264-1.244 0-2.727.745-4.447 2.237l-.068.088c0 .32.442.484 1.327.484 2.157 0 3.465-.432 3.932-1.295zm16.132-21.788c0 1.092-.725 2.288-2.181 3.601-1.317 1.24-3.288 3.034-5.908 5.378l-3.986 3.153-7.989 6.233c-.345.277-1.614 2.019-3.798 5.221v.264c.269 0 .439-.037.517-.11 2.335-1.93 3.767-3.086 4.291-3.466 2.159-1.58 3.781-2.367 4.876-2.367 1.154 0 1.73.427 1.73 1.293 0 .409-.38 1.096-1.147 2.061 0 .145-.088.32-.267.527-.316.35-1.236.702-2.766 1.053-1.38.306-2.066.626-2.066.963 0 .207.151.453.46.745.306.296.458.593.458.901 0 .263-.121.627-.368 1.087-.249.46-.37.82-.37 1.087 0 .175.068.26.201.26h.426c.974 0 3.11-1.433 6.405-4.298v.154c-.63.7-1.251 1.394-1.866 2.083-1.166 1.26-1.851 1.896-2.044 1.91l-.068-.067.068-.088.181-.088a.556.556 0 0 1-.022-.285 115.2 115.2 0 0 1-3.034 1.494v.218c.224 0 .531-.065.92-.188.388-.123.681-.185.877-.185h.066c-.36.555-1.064.835-2.11.835-.211 0-.637-.142-1.282-.418-1.065-.453-1.595-1.141-1.595-2.063 0-.73.175-1.442.528-2.137.351-.696.527-1.065.527-1.108 0-.323-.433-.484-1.298-.484l-.425.005-2.81 2.744a40.563 40.563 0 0 1-2.272 2.474c-.194.365-.428.555-.696.57l-2.115.15c-.285.032-.426-.175-.426-.61v-.2c.131-.337.364-.802.695-1.404l2-2.895c0-.277-.197-.47-.585-.568.135-.134.33-.323.585-.572a49.65 49.65 0 0 0 2.111-1.753.926.926 0 0 0 .113-.156l11.597-15.135c1.943-2.557 4.056-4.265 6.336-5.11-.03 0-.055-.009-.067-.023a1.55 1.55 0 0 1 .223-.067c.33-.043.831-.13 1.508-.26a1.82 1.82 0 0 0 .267-.068h-.069c.316-.087.975-.412 1.981-.972.792-.436 1.49-.65 2.088-.65 1.063 0 1.595.441 1.595 1.331zm11.819 19.66c0-.892-.248-1.337-.744-1.337h-.853c-1.082 0-1.927.274-2.54.832-.467.408-.996.92-1.593 1.537v.261h.31c1.92-.863 3.723-1.293 5.42-1.293zm-.068.79v-.175l-.159-.157h-.517c-.943 0-2.13.608-3.549 1.822-3.103 2.632-4.652 4.528-4.652 5.683 0 .337.084.54.244.613.093 0 .206.01.341.032.132.024.238.034.313.034 1.544 0 3.26-.932 5.145-2.797 1.89-1.864 2.834-3.551 2.834-5.055zm5.503 3.862c0 .085-.264.363-.784.83-.526.47-.894.77-1.104.902v.066c0 .043-.072.066-.224.066-.884.715-1.917 1.38-3.1 1.993a21.63 21.63 0 0 0-1.283.639.343.343 0 0 0-.178.305c0 .176.197.265.587.265.148 0 .36-.054.636-.155.277-.1.49-.152.641-.152-.598.337-1.094.502-1.482.502-.255 0-.748-.195-1.483-.579-.733-.389-1.103-.678-1.103-.868v-1.184c-.145.013-.636.279-1.467.79-.078-.101-.22-.154-.428-.154a13.203 13.203 0 0 1-3.364 1.384v.109c0 .203.195.307.588.307a3 3 0 0 0 .56-.078 2.83 2.83 0 0 1 .564-.077c-.424.235-.813.35-1.17.35-1.902 0-2.855-.956-2.855-2.872 0-2.138.992-4.11 2.98-5.923 1.983-1.813 4.077-2.72 6.279-2.72h.855c.432 0 .871.71 1.303 2.13.073.232.252.35.54.35.807-1.316 1.262-2.009 1.37-2.085.209-.162.972-.24 2.292-.24l-.853 1.25v.306h.673v.35c-1.018 1.2-2.043 2.4-3.08 3.6-1.497 1.84-2.245 3.076-2.245 3.705 0 .365.156.551.472.551.717 0 1.722-.506 3.01-1.516a423.677 423.677 0 0 1 2.853-2.192v.045zm15.089-11.102c0 .453-.311.902-.935 1.348-.623.45-1.18.671-1.674.671l-.088-.154v-.57c0-1.172.634-1.755 1.91-1.755.522 0 .787.155.787.46zm-5.779 13.645a6.98 6.98 0 0 1-.472.46v-.151l.429-.418.043.043v.066zm-1.75 1.689c-.063.1-.197.242-.405.417h-.114c.106-.175.247-.317.427-.417h.093zm4.132-4.694c-.734 1.168-1.4 1.994-1.998 2.478v-.133c0-.118-.09-.175-.27-.175.12 0-.634.536-2.27 1.604-.809.526-1.6.92-2.38 1.183-.39.13-.586.253-.586.372 0 .366.262.551.787.551.223 0 .515-.086.874-.256.363-.166.652-.252.881-.252-.39.512-1.094.77-2.115.77-.54 0-1.064-.25-1.573-.746-.51-.499-.764-1.002-.764-1.514 0-.6.83-2.172 2.496-4.716v-.416h-.27c-.36.336-.928.801-1.708 1.403-.062.086-.178.176-.36.264v-.067c0-.263.69-1.065 2.068-2.412-.015.205.126.309.427.309 1.256-.892 1.887-1.633 1.887-2.216h-.203l-1.01.81v-.153c.477-.541 1.256-1.23 2.335-2.062.15-.075.569-.111 1.258-.111h.654c-.046.117-.173.33-.384.638-.134.205-.201.46-.201.766.42 0 .757.088 1.01.264l-2.292 2.742c-.628.744-1.255 1.492-1.888 2.237-.82 1.084-1.233 1.952-1.233 2.612 0 .232.18.35.539.35.69 0 1.406-.322 2.158-.967.925-.657 2.254-1.709 3.976-3.157h.155zm29.608-23.91c0-.659-.354-.986-1.06-.986-.344 0-.831.154-1.457.46-.691.352-1.035.657-1.035.92v.155c.135 0 .327.018.583.055.255.034.452.054.586.054a.58.58 0 0 0 .427.154c.642.76 1.01 1.139 1.1 1.139.254 0 .473-.271.653-.81.133-.438.203-.82.203-1.14zm-1.686 1.95c0-.407-.195-.7-.584-.878-1.375 0-2.167.108-2.377.31-.658.574-1.555 1.442-2.69 2.6l-10.855 12.655-.01.296c.236 0 .433-.052.584-.151 1.332-.935 3.198-2.314 5.594-4.124.627-.56 1.655-1.463 3.08-2.723l6.135-5.393c.746-.66 1.123-1.524 1.123-2.591zm-16.36 22.005c-.15.13-.36.317-.63.568l-.067-.042.585-.571h.068l.044.045zm-1.44 1.247l-.401.418h-.112l.47-.461.044.043zm-7.348-1.556a6.2 6.2 0 0 1-.695.615l.695-.615zM362 228.061c0 .907-.57 1.941-1.71 3.094l-3.167 3.25c-.302.351-.834.893-1.597 1.623l-5.076 4.018-10.158 8.08c-.479.38-1.257 1.41-2.338 3.096-.99 1.52-1.68 2.692-2.068 3.513a.953.953 0 0 1-.02.16.646.646 0 0 0-.024.146c0 .07.015.2.044.393.015.178.015.307 0 .396l.18.153c1.094 0 2.554-.693 4.384-2.083h.111c-.6.745-1.452 1.46-2.56 2.148-1.231.779-2.249 1.163-3.058 1.163-1.2 0-1.798-.446-1.798-1.338 0-.801.407-2.011 1.215-3.62.073-.085.165-.228.267-.415l.046-.044c0-.25-.104-.37-.313-.37.45-.386 1.069-.983 1.866-1.8l12.807-15.138c.495-.6 1.953-1.874 4.384-3.826 3.205-2.598 5.518-3.893 6.94-3.893 1.094 0 1.643.432 1.643 1.294zm-4.24 24.61c0 .175-.091.263-.27.263l-.045.045h-.067l-.044-.045c.073-.06.18-.144.313-.263h.113zm-5.19-4.54c-.033.042-.067.075-.113.085-.031-.01-.046-.043-.046-.086v-.024c.015-.056.031-.084.046-.084h.022c.058.014.09.052.09.108zm4.492 5.109c-.928 1.04-2.391 1.966-4.382 2.788-1.932.79-3.626 1.184-5.076 1.184-2.159 0-3.236-.827-3.236-2.477 0-.717.269-1.42.81-2.107.537-.687 1.167-1.032 1.886-1.032a2.8 2.8 0 0 1 .438.045c.187.03.326.043.415.043v.527c0 .45-.38.996-1.144 1.622-.766.628-1.147 1.208-1.147 1.734 0 .818.359 1.23 1.078 1.23 1.685 0 3.12-.933 4.308-2.788.193-.32.954-1.96 2.275-4.913v-.396h-.269c-1.19.877-2.717 1.874-4.583 2.984l-.093-.26c.302-.267.763-.675 1.379-1.23-.012.205.092.306.317.306.288 0 .9-.365 1.837-1.098.944-.73 1.412-1.205 1.412-1.423 0-.19-.099-.28-.293-.266.121-.071.758-.533 1.912-1.38.99-.733 1.587-1.096 1.799-1.096.235 0 .357.085.357.26 0 .485-.336.945-1.011 1.383-.928.615-1.438.98-1.526 1.099 0 .38-.015.994-.046 1.84-.076 1.461-.188 2.459-.339 2.985-.223.758-.748 1.631-1.57 2.609v.263c.506-.014 1.955-.823 4.336-2.436h.156zm-110.157-19.28c-.461.688-1.238 1.48-2.338 2.369 1.05-.935 1.83-1.724 2.338-2.37zm5.712-1.49c0-1.888-1.485-2.83-4.452-2.83-.569 0-1.062.05-1.483.154 1.183.512 1.799 1.06 1.843 1.644v.88c0 1.59-1.08 3.193-3.238 4.8-.418.276-.994.727-1.73 1.34h.787c1.649 0 3.392-.585 5.235-1.757 2.024-1.3 3.038-2.708 3.038-4.232zm-9.439 3.093c0-.207-.108-.308-.316-.308-.344 0-.641.166-.887.503-.248.336-.372.69-.372 1.055v.306c0 .076.053.11.156.11.257 0 .556-.21.899-.627.345-.415.52-.763.52-1.039zm-1.171 3.004h-.156c-.24.118-.554.308-.943.57-.061.013-.114.064-.16.155.075-.076.322-.19.744-.352.359-.117.532-.242.515-.373zm-1.414.9v-.044c-.015-.088-.044-.13-.088-.13h-.025c-.06 0-.093.042-.093.13l-.018.044c.014.058.044.086.087.086h.049c.058-.014.088-.043.088-.086zm-.317.11v-.045c-.015-.089-.044-.13-.087-.13h-.046c-.046 0-.075.041-.09.13v.045c.015.088.044.132.09.132h.046c.043 0 .072-.044.087-.132zm-.267.151v-.063c-.015-.074-.046-.112-.09-.112h-.022c-.063 0-.093.038-.093.112v.063c0 .046.03.067.093.067h.022c.061 0 .09-.02.09-.067zm.201 7.307c0-1.888-1.039-2.83-3.122-2.83-.495 0-1.103.102-1.82.306-.824.235-1.344.512-1.554.835.992-.484 1.993-.726 3.015-.726h1.055c.103 0 .305.08.607.242.957.527 1.511 1.594 1.662 3.203.105-.307.157-.65.157-1.03zm-6.336-11.472a.093.093 0 0 0-.067-.024c-.196 0-.294.09-.294.264 0 .014.017.02.046.02.21 0 .315-.084.315-.26zm-1.013.83c-.014-.028-.036-.042-.065-.042h-.046a.15.15 0 0 0-.046.111v.045h.157v-.113zm-.424.42c-.017-.03-.038-.045-.068-.045h-.047a.162.162 0 0 0-.046.109v.046h.161v-.11zm15.66-4.543v-.414c-.253.699-.652 1.404-1.192 2.103.511-.786.766-1.577.766-2.367 0-.759-.615-1.14-1.845-1.14-3.205 0-6.118 1.24-8.738 3.729v.041c0 .25.271.784.818 1.602.548.821.82 1.39.82 1.713a1.324 1.324 0 0 1-.249.109 24.21 24.21 0 0 0-1.909-2.96l-.044.066c-.224.029-1.167.854-2.828 2.476-1.604 1.566-2.445 2.427-2.518 2.591l-.16.306h.36c3.357 0 6.624-.826 9.798-2.48 0-1.769.705-2.654 2.113-2.654.107.117.156.307.156.572 0 .555-.53 1.281-1.594 2.168l.335.31c.435-.19.997-.561 1.687-1.118l.694-.594c-.417.383-1.04.951-1.863 1.711l-.111.109v.154c1.183-.524 2.351-1.36 3.505-2.5 1.332-1.331 1.998-2.507 1.998-3.533zm-8.628 15.553c0-1.652-.794-2.477-2.381-2.477-.87 0-1.662.218-2.382.66 1.977.172 2.964.998 2.964 2.475 0 1.462-.838 2.943-2.516 4.432a15.406 15.406 0 0 1-4.562 2.851h.158c1.798 0 3.694-.877 5.687-2.632 2.022-1.813 3.032-3.583 3.032-5.31zm-9.19 8.534v-.045c-.014-.088-.054-.13-.112-.13h-.025c-.044 0-.073.042-.09.13v.045c.017.085.046.133.09.133h.025c.058 0 .098-.048.112-.133zm7.076-7.809c0-1.418-.739-2.127-2.223-2.127-.586 0-.975.05-1.169.154-.404.218-1.04.977-1.91 2.279-.87 1.302-1.303 2.156-1.303 2.57 0 .626.561.94 1.687.94.252 0 .607-.096 1.054-.286.45-.19.802-.285 1.055-.285-.447.66-1.166.987-2.155.987-.54 0-1.177-.242-1.91-.721-.314.688-.475 1.73-.475 3.136 0 .19.017.349.046.481 1.637-.514 3.2-1.415 4.698-2.72 1.735-1.504 2.605-2.975 2.605-4.408zm4.404-10.245l-.313-.263h-.067c-1.89.892-3.701 1.6-5.438 2.13-1.32.394-3.19.65-5.62.766-.552.439-.918.856-1.1 1.25h.472c4.197 0 8.219-1.292 12.066-3.883zm-17.48 5.178h-.314a.532.532 0 0 0-.247.043c.058.076.155.109.29.109h.07c.15 0 .253-.033.313-.109h.045a.263.263 0 0 0-.157-.043zm10.965-10.29v-.042c0-.188-.231-.482-.698-.879-2.23-1.93-4.199-2.808-5.91-2.63l.248-.178c-.526-.1-1.318-.152-2.381-.152-.657 0-1.363.432-2.112 1.296h.066c.437 0 1.054-.147 1.855-.44.802-.291 1.435-.439 1.899-.439l.158.067c-2.039.512-3.327.935-3.866 1.272-1.124.688-1.685 1.811-1.685 3.378 0 1.242.414 2.334 1.235 3.278.827.944 1.873 1.556 3.146 1.831 2.652-2.662 5.335-4.782 8.045-6.362zm-8.741 23.3c-1.782-.617-2.908-1.444-3.37-2.482a20.335 20.335 0 0 0-.699-1.38c0 .073-.004.184-.019.339a3.274 3.274 0 0 0-.024.317c0 .98.326 1.758.976 2.337.653.578 1.487.868 2.508.868h.628zm-2.946-13.12c-1.661-.277-3.129-1-4.403-2.172v.155c1.409 1.373 2.804 2.062 4.18 2.062.075 0 .15-.015.223-.044zm-4.403-2.26v-.044c-.015-.086-.044-.13-.088-.13h-.023c-.062 0-.09.044-.09.13v.045c0 .056.028.087.09.087h.023c.06-.014.088-.042.088-.087zm7.507-.899l-.158-.087c-2.741-1.8-4.112-3.663-4.112-5.596 0-.292.078-.719.236-1.281.158-.563.235-.991.235-1.284-.882.293-1.838 1.142-2.865 2.546-1.026 1.405-1.538 2.567-1.538 3.487 0 .249.088.49.27.725.687.919 1.61 1.694 2.763 2.325 1.214.655 2.374.987 3.484.987h.38c.028 0 .242-.274.64-.825.4-.546.619-.878.665-.997zm-1.573-10.835h-.112c-1.828 0-3.465.657-4.91 1.974-1.447 1.316-2.171 2.86-2.171 4.627v.835l.16.264c.554-1.903 1.624-3.476 3.213-4.716.569-.309 1.363-.821 2.382-1.537.315-.32.792-.802 1.438-1.447zm28.199 3.4c0 1.785-.987 3.317-2.965 4.606-1.783 1.17-3.635 1.755-5.55 1.755-.24 0-.599-.026-1.08-.079a10.812 10.812 0 0 0-1.1-.076c-1.648.836-2.884 1.433-3.706 1.8-1.619.743-2.871 1.227-3.754 1.448-.374.116-.937.27-1.685.458-1.215.224-3.012.55-5.395.988-1.871 2.21-2.809 4.761-2.809 7.656 0 2.998 1.236 4.498 3.708 4.498a.555.555 0 0 0 .114-.034.427.427 0 0 1 .157-.033 29.52 29.52 0 0 1 .72-5.812c.133-.452.312-1.134.539-2.04v-.09c1.617-2.585 3.802-3.88 6.56-3.88 2.58 0 3.867 1.152 3.867 3.466 0 1.08-.39 2.265-1.172 3.552-1.765 2.97-4.993 4.951-9.684 5.945.105.6.277 1.493.519 2.676 0 .011.007.035.021.064 0 .163-.036.28-.111.353-.076.013-.13-.035-.16-.153a74.149 74.149 0 0 1-.852-2.94c-.42-.102-.98-.154-1.686-.154a6.39 6.39 0 0 0-.819.076c-.37.052-.642.078-.822.078-1.346 0-2.424-.407-3.233-1.229-.81-.82-1.213-1.886-1.213-3.202 0-.586.342-2.004 1.032-4.258.659-2.135 1.162-3.559 1.504-4.275-2.082-.073-3.773-.825-5.078-2.257-1.303-1.436-1.954-3.184-1.954-5.246 0-1.783.54-3.311 1.62-4.582.897-1.084 2.336-1.962 4.312-2.631a4.602 4.602 0 0 1 1.26-.266c.044 0 1.017-.242 2.92-.724 1.093-.276 2.082-.417 2.967-.417 2.26 0 3.916.69 4.965 2.062.21.28.313.559.313.834h-.156c-.733-1.652-2.442-2.479-5.122-2.479-1.094 0-1.978.14-2.654.419 2.473.744 3.956 1.226 4.452 1.449 1.015.464 2.306 1.356 3.864 2.673 4.899-2.31 8.87-3.466 11.91-3.466 3.623 0 5.436 1.155 5.436 3.466z"/></g></svg>