<?xml version="1.0" encoding="UTF-8"?>
<svg width="86px" height="54px" viewBox="0 0 86 54" version="1.1" xmlns="http://www.w3.org/2000/svg" xmlns:xlink="http://www.w3.org/1999/xlink">
    <!-- Generator: sketchtool 49.3 (51167) - http://www.bohemiancoding.com/sketch -->
    <title>CBDE53CA-67CA-42FD-994A-C365D2270B7A</title>
    <desc>Created with sketchtool.</desc>
    <defs></defs>
    <g id="desktop" stroke="none" stroke-width="1" fill="none" fill-rule="evenodd">
        <g id="home-desktop" transform="translate(-933.000000, -2723.000000)" fill="#CCCCCC">
            <g id="Group-2-Copy" transform="translate(0.000000, 2611.000000)">
                <g id="Group-4" transform="translate(932.000000, 112.000000)">
                    <g id="Group" transform="translate(44.000000, 27.000000) scale(-1, 1) translate(-44.000000, -27.000000) translate(1.000000, 0.000000)">
                        <path d="M53.1176471,53.4545455 C80.9411765,45.8181818 86,31.6101622 86,20.3636364 C86,9.11711055 76.9403502,0 65.7647059,0 C54.5890615,0 45.5294118,9.11711055 45.5294118,20.3636364 C45.5294118,30.2275295 55.0277423,33.3624701 64.2812067,35.2359618 C73.534671,37.1094535 51.7660361,53.8255046 53.1176471,53.4545455 Z" id="Oval"></path>
                        <path d="M7.58823529,53.4545455 C35.4117647,45.8181818 40.4705882,31.6101622 40.4705882,20.3636364 C40.4705882,9.11711055 31.4109385,0 20.2352941,0 C9.05964977,0 0,9.11711055 0,20.3636364 C0,30.2275295 9.49833058,33.3624701 18.7517949,35.2359618 C28.0052593,37.1094535 6.23662437,53.8255046 7.58823529,53.4545455 Z" id="Oval-Copy"></path>
                    </g>
                </g>
            </g>
        </g>
    </g>
</svg>