<?xml version="1.0" encoding="UTF-8"?>
<svg width="409px" height="310px" viewBox="0 0 409 310" version="1.1" xmlns="http://www.w3.org/2000/svg" xmlns:xlink="http://www.w3.org/1999/xlink">
    <!-- Generator: sketchtool 49.3 (51167) - http://www.bohemiancoding.com/sketch -->
    <title>2F6EE7C0-647F-41E1-9A6A-DC7043E32845</title>
    <desc>Created with sketchtool.</desc>
    <defs>
        <filter x="-11.2%" y="-15.6%" width="122.4%" height="131.2%" filterUnits="objectBoundingBox" id="filter-1">
            <feOffset dx="0" dy="0" in="SourceAlpha" result="shadowOffsetOuter1"></feOffset>
            <feGaussianBlur stdDeviation="13.5" in="shadowOffsetOuter1" result="shadowBlurOuter1"></feGaussianBlur>
            <feColorMatrix values="0 0 0 0 0   0 0 0 0 0   0 0 0 0 0  0 0 0 1 0" type="matrix" in="shadowBlurOuter1" result="shadowMatrixOuter1"></feColorMatrix>
            <feMerge>
                <feMergeNode in="shadowMatrixOuter1"></feMergeNode>
                <feMergeNode in="SourceGraphic"></feMergeNode>
            </feMerge>
        </filter>
    </defs>
    <g id="desktop" stroke="none" stroke-width="1" fill="none" fill-rule="evenodd">
        <g id="home-desktop" transform="translate(-517.000000, -258.000000)" fill="#FFFFFF">
            <g id="Group-2" transform="translate(0.000000, 100.000000)">
                <g id="Group-8" filter="url(#filter-1)" transform="translate(540.000000, 185.000000)">
                    <path d="M66.5657928,162.130287 C66.5779273,161.829192 66.584027,161.525547 66.584027,161.219398 C66.584027,144.780136 50.5185127,140.387852 39.3839927,139.218649 C39.413715,134.128534 40.2625219,127.953358 42.5075092,120.705418 C46.8134208,106.798248 58.3671912,92.5561562 61.5391277,90.3222903 C65.1795609,87.757757 69.3332111,85.8269143 76.4777876,91.7268295 C80.6154663,95.1408911 144.202197,139.990454 148.175902,143.456614 C152.149607,146.922775 153.604076,151.290562 152.52121,154.783303 C151.436214,158.276045 146.575559,162.130287 141.587133,162.130287 L66.5657928,162.130287 Z M22.8855714,138.88473 C20.4893901,138.937711 17.9305477,139.013252 15.3356888,139.106584 C26.5855283,60.569204 94.3970599,0 176.108108,0 C265.66234,0 338.518919,72.7532168 338.518919,162.178027 L331.082597,162.178027 C331.082597,76.8477516 261.561928,7.42566372 176.108108,7.42566372 C98.5822781,7.42566372 34.1689128,64.5654198 22.8855714,138.88473 Z M310.798601,121.092225 C315.971232,138.177418 313.45945,149.277637 310.776241,154.275925 C308.089838,159.280593 305.935817,162.149213 297.484773,162.139644 C288.999657,162.130075 216.805362,162.130075 211.300524,162.173667 C206.313163,162.211944 201.636713,157.986631 200.578336,154.488573 C199.519959,150.988389 200.996789,146.630171 204.991789,143.188465 C208.985724,139.74357 272.853553,95.289532 277.010397,91.9031146 C284.193306,86.0510452 288.332049,88.0074056 291.96077,90.5953302 C295.11567,92.8462079 306.58213,107.159536 310.798601,121.092225 Z M259.426754,49.3043232 C273.818124,59.8963137 278.455178,70.2905417 279.308055,75.9012559 C280.155608,81.51197 280.254631,85.2364975 273.377311,90.1465369 C266.50212,95.0501968 208.254124,138.583469 204.371989,141.698761 C200.4824,144.819368 194.117232,144.126136 191.173156,141.958191 C188.225885,139.789183 186.79484,135.411826 187.930945,130.265748 C189.065985,125.121796 213.563045,51.3351104 214.863123,46.1326801 C217.104455,37.1525605 221.595635,36.2413643 226.046355,36.1446095 C229.929555,36.0595504 247.693038,40.6697563 259.426754,49.3043232 Z M176.820117,20.2391866 C194.696465,20.2391866 204.604108,25.8573434 208.626792,29.8700088 C212.644152,33.8826741 214.935527,36.8235942 212.314075,44.8489249 C209.696881,52.8742557 188.676281,122.419679 187.400692,127.234027 C186.124038,132.049438 180.592581,135.259358 176.927658,135.259358 C173.268059,135.259358 169.514761,132.584248 167.374582,127.768836 C165.231209,122.955552 141.104688,49.0434042 139.059273,44.0876455 C135.531705,35.5285687 138.603554,32.1368351 142.132186,29.4202585 C145.206164,27.0556142 162.246671,20.2391866 176.820117,20.2391866 Z M93.1528671,50.1017527 C104.741775,41.2736762 122.426465,36.3668266 126.307535,36.3870281 C130.763579,36.4082929 135.268602,37.2450623 137.66113,46.1858421 C139.045325,51.3659443 164.771124,124.734777 165.995604,129.861717 C167.215826,134.983341 165.859314,139.383025 162.946116,141.603069 C160.037177,143.82205 153.689045,144.621606 149.748348,141.567982 C145.810845,138.513296 86.846261,95.9592665 79.8890833,91.1693731 C72.9308408,86.3773533 72.9638485,82.6475096 73.7187672,77.0229734 C74.4790098,71.4005636 78.9457011,60.9340353 93.1528671,50.1017527 Z" id="Combined-Shape"></path>
                    <path d="M269.690279,193.666751 L273.810912,193.666751 C282.869492,193.666751 286.762383,190.025773 286.762383,182.289774 C286.762383,172.803388 281.446639,170.601114 272.760534,170.601114 C271.415368,170.601114 270.665098,170.677687 269.690279,170.753181 L269.690279,193.666751 Z M294.772713,181.752687 C294.772713,188.884732 289.006808,193.666751 279.946099,194.42385 C282.196909,194.575917 286.388844,199.658833 287.659514,201.404907 L293.947948,209.75133 C297.092697,213.924003 301.208009,218.019024 307.127161,218.019024 L307.127161,219.688525 L293.800023,219.688525 C292.527224,218.706021 290.582907,217.185352 287.209352,212.482063 L279.423571,201.632468 C275.008151,195.488318 273.510804,195.488318 270.739593,195.488318 L269.690279,195.488318 L269.690279,206.636655 C269.690279,216.351681 269.617913,218.019024 275.906347,218.019024 L278.300826,218.019024 L278.300826,219.688525 L254.568878,219.688525 L254.568878,218.019024 L256.141785,218.019024 C262.506842,218.019024 262.506842,216.351681 262.506842,206.636655 L262.506842,181.983483 C262.506842,170.905248 261.978993,171.132809 254.943481,171.132809 L254.943481,169.466544 C260.257096,169.085838 268.420673,168.781704 273.285191,168.781704 C276.50337,168.781704 294.772713,168.475413 294.772713,181.752687 Z M22.8667426,180.340406 L29.0966449,180.340406 C42.7941292,180.340406 48.681355,174.830407 48.681355,163.132041 C48.681355,148.791378 40.6412265,145.462083 27.5109677,145.462083 C25.473,145.462083 24.3385491,145.577481 22.8667426,145.693958 L22.8667426,180.340406 Z M60.7942262,162.328567 C60.7942262,173.109139 52.0740657,180.340406 38.3765814,181.485761 C41.7767417,181.713322 48.1141295,189.39971 50.0403548,192.040929 L59.5459045,204.660325 C64.2986793,210.97164 70.5296458,217.166479 79.4700984,217.166479 L79.4700984,219.689064 L59.3224198,219.689064 C57.3972586,218.199671 54.45471,215.905726 49.3592586,208.789858 L37.584807,192.383888 C30.9079353,183.093787 28.6390334,183.093787 24.4524198,183.093787 L22.8667426,183.093787 L22.8667426,199.955957 C22.8667426,214.642815 22.7560645,217.166479 32.2637425,217.166479 L35.885259,217.166479 L35.885259,219.689064 L0,219.689064 L0,217.166479 L2.37638741,217.166479 C12.0021931,217.166479 12.0021931,214.642815 12.0021931,199.955957 L12.0021931,162.671526 C12.0021931,145.922598 11.2072261,146.2634 0.565097051,146.2634 L0.565097051,143.739737 C8.60522552,143.167059 20.9447741,142.707623 28.3048705,142.707623 C33.1704519,142.707623 60.7942262,142.252501 60.7942262,162.328567 Z M246.635171,204.060361 L245.585857,219.68874 L204.56045,219.68874 L204.56045,218.01924 L205.535269,218.01924 C211.973757,218.01924 211.973757,216.351896 211.973757,206.636871 L211.973757,181.98262 C211.973757,172.045426 211.898198,171.133025 205.535269,171.133025 L205.535269,169.465681 L241.022512,169.465681 L242.144193,181.98262 L240.421232,181.98262 C238.026753,171.282935 234.43397,171.133025 226.050101,171.133025 L219.160387,171.133025 L219.160387,192.300521 L224.478258,192.300521 C231.438211,192.300521 231.888373,190.555527 231.888373,184.712275 L233.609205,184.712275 L233.609205,201.936817 L231.888373,201.936817 C231.888373,194.348571 230.240971,193.9711 224.549561,193.9711 L219.160387,193.9711 L219.160387,205.879772 C219.160387,217.413129 219.609484,218.01924 226.422575,218.01924 L230.090917,218.01924 C234.281788,218.01924 241.619536,218.01924 244.915403,204.060361 L246.635171,204.060361 Z M173.86855,169.466005 L196.478817,169.466005 L196.478817,171.133348 L195.429503,171.133348 C188.91652,171.133348 188.766466,171.741616 188.766466,181.982944 L188.766466,206.637194 C188.766466,216.35222 188.766466,218.019563 195.057029,218.019563 L196.478817,218.019563 L196.478817,219.689064 L173.86855,219.689064 L173.86855,218.019563 L175.289274,218.019563 C181.576644,218.019563 181.576644,216.35222 181.576644,206.637194 L181.576644,181.982944 C181.576644,171.814953 181.427654,171.133348 174.915735,171.133348 L173.86855,171.133348 L173.86855,169.466005 Z M140.481956,220.902256 L121.690085,176.824425 C120.193801,173.333357 118.994433,171.13324 113.828744,171.13324 L113.828744,169.465897 L135.167277,169.465897 L135.167277,171.13324 C131.198827,171.13324 128.427617,171.28315 128.427617,174.017119 C128.427617,175.078352 128.65323,175.45798 130.150577,179.023463 L144.374847,212.409158 L155.82897,184.638075 C158.749171,177.582602 158.749171,176.595785 158.749171,175.60789 C158.749171,171.589441 155.004205,171.13324 152.75978,171.13324 L152.75978,169.465897 L167.881182,169.465897 L167.881182,171.13324 C164.140473,171.13324 162.043974,174.470084 160.396572,178.415196 L142.804069,220.902256 L140.481956,220.902256 Z M85.3060291,169.466005 L107.916296,169.466005 L107.916296,171.133348 L106.868047,171.133348 C100.356128,171.133348 100.206074,171.741616 100.206074,181.982944 L100.206074,206.637194 C100.206074,216.35222 100.206074,218.019563 106.493444,218.019563 L107.916296,218.019563 L107.916296,219.689064 L85.3060291,219.689064 L85.3060291,218.019563 L86.729946,218.019563 C93.0173158,218.019563 93.0173158,216.35222 93.0173158,206.637194 L93.0173158,181.982944 C93.0173158,171.814953 92.8672618,171.133348 86.3542788,171.133348 L85.3060291,171.133348 L85.3060291,169.466005 Z M342.461051,199.509355 L333.697258,178.114297 L325.015409,199.509355 L342.461051,199.509355 Z M324.266203,201.176698 L321.34281,208.537383 C320.897969,209.751762 320.147699,212.257091 320.147699,213.316167 C320.147699,215.746001 321.87066,218.019456 325.536873,218.019456 L325.536873,219.688956 L310.789011,219.688956 L310.789011,218.019456 C312.88551,217.94504 315.955765,216.65301 317.901146,212.026294 L335.720327,168.705562 L337.142115,168.705562 L355.334835,212.330428 C356.454387,214.985667 358.032614,218.019456 362,218.019456 L362,219.688956 L342.461051,219.688956 L342.461051,218.019456 C345.974018,218.019456 348.597303,218.097107 348.597303,215.289801 C348.597303,214.453972 348.146076,213.394896 347.624612,212.181596 L343.130441,201.176698 L324.266203,201.176698 Z" id="Fill-26"></path>
                    <path d="M294.243303,250.893917 C294.078694,250.981561 293.855296,251.171457 293.567765,251.465692 L294.042352,250.960694 C294.087245,250.929392 294.146034,250.908525 294.220856,250.893917 L294.243303,250.893917 Z M293.567765,251.465692 L292.716931,252.409954 C292.897573,252.201277 293.179759,251.888262 293.567765,251.465692 Z M292.716931,252.409954 L292.668831,252.452733 C292.625006,252.495511 292.567286,252.530986 292.491395,252.562288 C292.537357,252.519509 292.557666,252.466297 292.557666,252.409954 L292.716931,252.409954 Z M305.951901,240.587371 C304.887288,241.652666 303.509492,243.158269 301.816373,245.10418 C301.351407,245.58831 300.715419,246.318679 299.906271,247.298416 C299.891306,247.343282 299.854964,247.414232 299.794037,247.516484 L299.704251,247.670904 C299.704251,247.684468 299.690355,247.699076 299.65722,247.71264 C299.643324,247.727247 299.639049,247.727247 299.639049,247.71264 L299.639049,247.801327 C299.639049,247.859757 299.65722,247.91923 299.704251,247.978703 L302.872435,247.978703 L303.298921,248.131037 L303.142863,248.32928 L299.210425,248.32928 C299.045816,248.32928 298.200326,249.444657 296.670747,251.683759 C295.546277,253.351086 294.987248,254.734613 294.987248,255.830166 C294.987248,255.930331 295.215991,255.9825 295.683095,255.9825 C296.610889,255.9825 298.384174,254.876513 301.009363,252.6708 L301.188936,252.6708 C298.175741,255.597492 295.683095,257.059272 293.704583,257.059272 C292.731895,257.059272 292.243413,256.649223 292.243413,255.830166 C292.243413,255.246915 292.897573,253.811218 294.200547,251.532468 C294.228338,251.472995 294.282851,251.385351 294.354467,251.266405 C294.354467,251.079639 294.319194,250.95339 294.243303,250.893917 L294.290334,250.872006 L294.220856,250.893917 C294.189858,250.88244 294.160998,250.872006 294.132138,250.872006 L296.358632,248.699681 L296.358632,248.372058 L294.132138,248.372058 C294.058385,248.251026 293.908741,248.180076 293.683205,248.151904 L294.290334,248.151904 C295.128342,248.151904 296.012312,248.094518 296.941176,247.978703 C297.120749,247.846193 298.25377,246.617087 300.333826,244.292427 C301.024327,243.532844 301.816373,242.740916 302.715308,241.924989 C303.854743,240.883692 304.843464,240.364087 305.679334,240.364087 C305.862114,240.364087 305.951901,240.440254 305.951901,240.587371 Z M269.306148,247.143787 C269.306148,246.892331 269.162917,246.669047 268.878592,246.463501 C268.834768,246.463501 268.768497,246.456197 268.689399,246.44159 C268.607095,246.426982 268.542962,246.420722 268.497,246.420722 C267.177992,246.420722 266.083451,246.8026 265.216583,247.56114 C264.841403,247.879372 264.558148,248.151696 264.36361,248.372893 C263.98843,248.795464 263.800306,249.12726 263.800306,249.359934 L264.115628,249.359934 C265.701858,248.569049 267.342601,248.021273 269.036788,247.712431 C269.216361,247.537143 269.306148,247.34829 269.306148,247.143787 Z M271.41827,252.36488 C268.914935,254.791791 267.134167,256.217053 266.069555,256.64171 C266.083451,256.43512 265.993664,256.333912 265.802333,256.333912 C265.695444,256.333912 264.741996,256.611452 262.946265,257.168619 L262.946265,257.431552 C263.201729,257.431552 263.58546,257.367905 264.106008,257.244786 C264.621212,257.121667 265.014563,257.059064 265.281785,257.059064 L265.373709,257.059064 C264.533563,257.509806 263.673108,257.737263 262.788069,257.737263 C262.248281,257.737263 261.554573,257.509806 260.698393,257.059064 C259.755634,256.575977 259.284255,256.114801 259.284255,255.67658 L259.284255,252.780147 C259.585681,252.519301 259.799459,252.201068 259.935207,251.837971 C260.474996,250.317761 261.48937,248.989533 262.978331,247.855375 C264.470499,246.724347 266.031075,246.156746 267.663267,246.156746 C269.522063,246.156746 270.453064,246.778603 270.453064,248.021273 C270.453064,250.289589 269.836316,251.423747 268.609233,251.423747 C268.216951,251.423747 268.023482,251.252633 268.023482,250.91562 C268.023482,250.798761 268.076927,250.623472 268.182746,250.388711 C268.28536,250.156036 268.338804,249.967184 268.338804,249.819023 C268.338804,249.600956 268.234053,249.064657 268.023482,248.216385 C266.974903,248.216385 265.68048,249.162735 264.140212,251.043956 C262.5946,252.92935 261.821795,254.406782 261.821795,255.474164 C261.821795,256.162797 262.288899,256.5092 263.216693,256.5092 C265.327747,256.5092 268.008518,255.12776 271.260075,252.36488 L271.41827,252.36488 Z M248.487739,257.168202 L248.892847,257.168202 L248.892847,256.905269 L248.487739,256.905269 L248.487739,257.168202 Z M254.98337,249.316738 C254.98337,248.292135 254.943822,247.634803 254.871137,247.342656 C254.659497,246.626894 254.173153,246.265884 253.40783,246.265884 C252.0621,246.265884 250.749505,247.003556 249.47646,248.482031 L249.47646,248.789829 C249.923255,248.789829 250.579552,248.623931 251.430387,248.294222 C252.285497,247.964513 252.93645,247.800701 253.386452,247.800701 C253.461274,247.800701 253.520063,247.808005 253.566025,247.822612 L253.72422,247.912343 C252.227777,248.685491 250.690717,249.833213 249.117314,251.354467 C247.245691,253.182475 246.307207,254.724597 246.307207,255.981874 L246.307207,256.223939 C246.324309,256.342885 246.324309,256.428443 246.307207,256.490002 L246.647114,256.750848 C248.455672,256.750848 250.329432,255.698074 252.270533,253.593569 C252.453313,252.902848 252.777186,252.276818 253.243221,251.705044 C253.739185,251.181265 254.23408,250.65853 254.733251,250.149358 C254.899997,249.942768 254.98337,249.667315 254.98337,249.316738 Z M257.678037,252.628438 C257.678037,252.93415 257.177797,253.351504 256.173043,253.875282 C255.391686,254.30307 254.880757,254.545135 254.632775,254.601477 C254.385862,254.658863 253.796905,254.689122 252.86911,254.689122 C252.932174,254.689122 252.304737,255.171165 250.993212,256.136295 C249.682755,257.101425 248.421468,257.585555 247.207211,257.585555 C246.577636,257.585555 245.971576,257.400876 245.389033,257.035692 C244.621571,256.568256 244.242116,256.114384 244.242116,255.676163 C244.242116,255.355844 244.2667,254.884234 244.320145,254.260291 C244.37252,253.638434 244.398173,253.176215 244.398173,252.870504 C244.398173,252.692085 244.3148,252.613831 244.149123,252.628438 C244.616227,251.939805 245.318486,250.924593 246.263383,249.577584 C246.965642,248.557155 247.973603,247.703667 249.287267,247.02338 C250.594517,246.342051 251.882527,246.005038 253.13847,246.005038 C253.889898,246.005038 254.462822,246.230409 254.871137,246.683237 C255.018644,246.858526 255.342517,247.407346 255.836343,248.329697 C256.224349,249.060066 256.422093,249.503504 256.422093,249.667315 C256.422093,250.134751 256.314136,250.53541 256.105703,250.872423 C255.371377,252.025363 254.525886,253.073963 253.566025,254.008835 L253.566025,254.226903 C254.239424,254.226903 254.681944,254.193514 254.890377,254.117347 C255.717696,253.826243 256.645491,253.328549 257.678037,252.628438 Z M301.132713,228.038802 C301.132713,227.336605 300.785324,226.986028 300.084134,226.986028 C299.727125,226.986028 299.210852,227.16862 298.539591,227.533804 C297.813816,227.915683 297.447187,228.249566 297.447187,228.541713 C297.447187,228.68883 297.573316,228.859945 297.820229,229.059232 C298.063935,229.255388 298.190064,229.411895 298.190064,229.528754 L298.190064,230.25495 C298.190064,230.562748 298.083175,230.989492 297.874742,231.549789 C297.66524,232.103826 297.558351,232.53683 297.558351,232.842542 L297.917498,232.842542 C300.061687,230.73595 301.132713,229.134355 301.132713,228.038802 Z M295.381027,229.37642 L295.381027,229.068622 C294.554776,229.068622 293.524369,229.704043 292.280183,230.978015 C291.425073,231.957752 290.5721,232.937489 289.719128,233.917227 L289.719128,234.18016 L289.98635,234.18016 L295.381027,229.37642 Z M286.345717,256.400062 C286.330753,256.442841 286.316857,256.466839 286.301893,256.466839 L286.279446,256.466839 C286.248449,256.452232 286.219589,256.428234 286.190729,256.400062 C286.190729,256.342676 286.204624,256.305115 286.234553,256.290507 C286.294411,256.290507 286.330753,256.318679 286.345717,256.378151 L286.345717,256.400062 Z M288.18848,247.757714 L288.18848,246.726851 C288.18848,246.522347 287.9576,246.420096 287.492634,246.420096 C286.909021,246.420096 285.864718,246.887532 284.370412,247.822404 L284.370412,248.130202 C284.608774,248.130202 284.950819,248.079076 285.393338,247.978911 C285.83372,247.87666 286.166144,247.822404 286.392748,247.822404 L286.503913,247.822404 C286.66959,247.837011 287.036219,247.912135 287.604867,248.042558 L287.852849,248.087423 L287.942636,248.130202 L287.921258,248.130202 C288.100831,248.130202 288.18848,248.007083 288.18848,247.757714 Z M297.334954,230.145394 L297.334954,229.528754 C297.169276,229.22513 296.982221,229.068622 296.773788,229.068622 L292.90762,232.842542 C292.504649,233.22442 291.867592,233.859841 290.997517,234.751934 L288.122209,238.194057 L282.370523,245.082478 C282.158883,245.331846 282.054132,245.549914 282.054132,245.73981 L282.530856,245.741896 L292.102748,238.04381 C293.344795,237.064073 294.476748,235.871485 295.49326,234.46709 C296.722481,232.783069 297.334954,231.345286 297.334954,230.145394 Z M286.190729,249.886217 L286.190729,248.636243 C286.190729,248.457824 285.942747,248.372267 285.446783,248.372267 C284.202597,248.372267 282.72005,249.117243 281.000209,250.609282 L280.9318,250.696926 C280.9318,251.017245 281.37432,251.181056 282.259359,251.181056 C284.416375,251.181056 285.723625,250.749095 286.190729,249.886217 Z M302.323454,228.098275 C302.323454,229.189655 301.597679,230.386416 300.141854,231.698993 C298.824984,232.939576 296.853954,234.733153 294.23411,237.076593 L290.248227,240.229699 L282.259359,246.462875 C281.914108,246.740415 280.645338,248.481822 278.460531,251.683967 L278.460531,251.947944 C278.729891,251.947944 278.899844,251.911425 278.977873,251.838388 C281.313393,249.907085 282.744634,248.752059 283.269458,248.372267 C285.427543,246.792584 287.050114,246.004829 288.144656,246.004829 C289.299055,246.004829 289.875185,246.431573 289.875185,247.297582 C289.875185,247.706588 289.494661,248.394178 288.728268,249.359308 C288.728268,249.504339 288.639551,249.679627 288.461046,249.886217 C288.144656,250.236794 287.225412,250.588414 285.694765,250.938991 C284.31483,251.244703 283.628604,251.565022 283.628604,251.902035 C283.628604,252.108625 283.780386,252.354863 284.088226,252.647011 C284.394997,252.943332 284.546779,253.239653 284.546779,253.548494 C284.546779,253.811427 284.425995,254.174525 284.179082,254.634657 C283.930031,255.094789 283.809246,255.4558 283.809246,255.721863 C283.809246,255.897151 283.876586,255.982709 284.010197,255.982709 L284.435615,255.982709 C285.41044,255.982709 287.546078,254.5491 290.84146,251.683967 L290.84146,251.838388 C290.211885,252.537455 289.589792,253.232349 288.975182,253.920982 C287.809025,255.180347 287.123868,255.816811 286.931468,255.830375 L286.863059,255.763598 L286.931468,255.675954 L287.11211,255.58831 C287.080043,255.513186 287.075768,255.422412 287.089663,255.303466 C286.413057,255.655086 285.402958,256.150694 284.056159,256.796548 L284.056159,257.014616 C284.279557,257.014616 284.587397,256.949926 284.975403,256.826806 C285.364478,256.703687 285.657354,256.642128 285.85296,256.642128 L285.919231,256.642128 C285.559016,257.197208 284.854619,257.476835 283.809246,257.476835 C283.597607,257.476835 283.172189,257.334934 282.526581,257.059481 C281.461968,256.605609 280.9318,255.918019 280.9318,254.995668 C280.9318,254.265299 281.107098,253.553711 281.459831,252.858818 C281.811495,252.162881 281.986792,251.793523 281.986792,251.750744 C281.986792,251.428338 281.553893,251.266614 280.689163,251.266614 L280.263745,251.271831 L277.454708,254.01593 C276.808031,254.786991 276.052327,255.612308 275.182252,256.489794 C274.987714,256.854978 274.753628,257.044874 274.486406,257.059481 L272.371077,257.210772 C272.085684,257.242073 271.944591,257.035483 271.944591,256.599349 L271.944591,256.400062 C272.076064,256.06305 272.309081,255.5977 272.640437,254.995668 L274.640326,252.101321 C274.640326,251.823781 274.442582,251.631798 274.054575,251.532677 C274.190324,251.399124 274.385931,251.210271 274.640326,250.960902 C275.208974,250.521638 275.911234,249.938386 276.751379,249.208017 C276.781308,249.174629 276.819788,249.126634 276.863613,249.05151 L288.461046,233.917227 C290.404285,231.359893 292.517476,229.651874 294.797414,228.806733 C294.766416,228.806733 294.741832,228.798386 294.730074,228.783778 C294.758934,228.769171 294.831618,228.748303 294.953472,228.717002 C295.283758,228.674223 295.783998,228.586579 296.460604,228.456156 C296.547184,228.441548 296.640177,228.418594 296.727826,228.389379 L296.659417,228.389379 C296.974739,228.301735 297.634243,227.977243 298.640066,227.416945 C299.432112,226.980811 300.130096,226.766917 300.727604,226.766917 C301.791148,226.766917 302.323454,227.208269 302.323454,228.098275 Z M314.14204,247.758236 C314.14204,246.866142 313.894058,246.420617 313.398094,246.420617 L312.545122,246.420617 C311.463407,246.420617 310.617917,246.695027 310.005444,247.253238 C309.53834,247.661201 309.009241,248.173502 308.411732,248.790142 L308.411732,249.050988 L308.722779,249.050988 C310.642501,248.18811 312.444646,247.758236 314.14204,247.758236 Z M314.073632,248.548077 L314.073632,248.372789 L313.915436,248.216281 L313.398094,248.216281 C312.455335,248.216281 311.26887,248.823531 309.849387,250.038029 C306.746405,252.670487 305.196518,254.566315 305.196518,255.721341 C305.196518,256.058354 305.28096,256.261814 305.441293,256.333808 C305.534286,256.333808 305.646519,256.343198 305.782268,256.366153 C305.913741,256.39015 306.019561,256.399541 306.095452,256.399541 C307.638926,256.399541 309.354492,255.467799 311.24001,253.603272 C313.130872,251.738745 314.073632,250.051593 314.073632,248.548077 Z M319.577335,252.409641 C319.577335,252.495198 319.31332,252.772738 318.792772,253.240174 C318.266879,253.709697 317.899181,254.009148 317.688611,254.141658 L317.688611,254.208435 C317.688611,254.251213 317.616995,254.274168 317.465213,254.274168 C316.581243,254.988886 315.547628,255.654565 314.365438,256.267031 C314.064012,256.399541 313.638594,256.611348 313.081704,256.905582 C312.965195,256.978619 312.904268,257.078784 312.904268,257.211293 C312.904268,257.386582 313.100944,257.476313 313.491088,257.476313 C313.638594,257.476313 313.850234,257.422057 314.127076,257.320849 C314.403918,257.220684 314.617696,257.168515 314.768409,257.168515 C314.169832,257.505528 313.673868,257.671426 313.285861,257.671426 C313.031466,257.671426 312.53764,257.476313 311.803314,257.092348 C311.070057,256.703166 310.700221,256.414148 310.700221,256.224252 L310.700221,255.63161 L310.700221,255.040012 C310.554853,255.052532 310.064233,255.318595 309.232638,255.830897 C309.154609,255.728645 309.013516,255.676476 308.805083,255.676476 C307.752229,256.291029 306.633103,256.751161 305.441293,257.060003 L305.441293,257.168515 C305.441293,257.371975 305.63583,257.476313 306.029181,257.476313 C306.160654,257.476313 306.350916,257.448142 306.589278,257.398059 C306.828709,257.34589 307.016834,257.320849 307.152582,257.320849 C306.729303,257.55561 306.340228,257.671426 305.983219,257.671426 C304.080599,257.671426 303.128219,256.714643 303.128219,254.79899 C303.128219,252.661096 304.120147,250.688058 306.10721,248.8757 C308.091066,247.063342 310.185017,246.156641 312.386926,246.156641 L313.242037,246.156641 C313.673868,246.156641 314.11318,246.866142 314.545011,248.285144 C314.617696,248.517819 314.797269,248.635721 315.0848,248.635721 C315.89181,247.320014 316.347156,246.627208 316.455114,246.55104 C316.663547,246.389316 317.426733,246.311062 318.74681,246.311062 L317.893837,247.561036 L317.893837,247.866748 L318.567236,247.866748 L318.567236,248.216281 C317.548586,249.416173 316.523523,250.617107 315.48777,251.816999 C313.990258,253.657528 313.242037,254.892894 313.242037,255.522055 C313.242037,255.887239 313.398094,256.072962 313.714485,256.072962 C314.43064,256.072962 315.436464,255.56692 316.724474,254.556925 C318.581132,253.124359 319.531373,252.396077 319.577335,252.364775 L319.577335,252.409641 Z M334.665864,241.30835 C334.665864,241.761178 334.354818,242.209833 333.730587,242.656402 C333.108494,243.1061 332.551604,243.327297 332.056709,243.327297 L331.96906,243.172877 L331.96906,242.603189 C331.96906,241.431469 332.60291,240.848217 333.879163,240.848217 C334.40078,240.848217 334.665864,241.002638 334.665864,241.30835 Z M328.887456,254.95268 C328.799807,255.051802 328.641612,255.206223 328.415008,255.412813 L328.415008,255.261522 L328.843632,254.844168 L328.887456,254.886947 L328.887456,254.95268 Z M327.137686,256.641919 C327.073553,256.742084 326.939942,256.883984 326.731509,257.059272 L326.618207,257.059272 C326.724027,256.883984 326.86512,256.742084 327.044693,256.641919 L327.137686,256.641919 Z M331.268938,251.947735 C330.534612,253.116325 329.869764,253.941641 329.271187,254.425772 L329.271187,254.293262 C329.271187,254.175359 329.1814,254.117973 329.001827,254.117973 C329.120474,254.117973 328.366908,254.654273 326.731509,255.721654 C325.922361,256.24752 325.130315,256.641919 324.351096,256.904852 C323.960952,257.035275 323.765345,257.158394 323.765345,257.27734 C323.765345,257.642524 324.027223,257.828246 324.552047,257.828246 C324.775444,257.828246 325.067251,257.741645 325.426397,257.571574 C325.78875,257.405676 326.078419,257.320118 326.307161,257.320118 C325.917017,257.83242 325.212619,258.089092 324.191831,258.089092 C323.652043,258.089092 323.128288,257.839724 322.619497,257.344116 C322.109638,256.845379 321.855242,256.342468 321.855242,255.830166 C321.855242,255.230221 322.685768,253.657841 324.351096,251.114071 L324.351096,250.697761 L324.080667,250.697761 C323.721521,251.033731 323.152872,251.49908 322.372584,252.101112 C322.310589,252.18667 322.195149,252.277444 322.012369,252.365088 L322.012369,252.298312 C322.012369,252.035379 322.702871,251.233017 324.080667,249.886008 C324.065703,250.090512 324.206796,250.19485 324.508222,250.19485 C325.764166,249.302757 326.394809,248.561954 326.394809,247.978703 L326.191721,247.978703 L325.181622,248.789412 L325.181622,248.636034 C325.659415,248.094518 326.437565,247.406928 327.517142,246.574308 C327.666786,246.499184 328.08579,246.462666 328.775223,246.462666 L329.429382,246.462666 C329.38342,246.579525 329.256222,246.792375 329.044583,247.101217 C328.910972,247.30572 328.843632,247.561349 328.843632,247.867061 C329.263705,247.867061 329.601473,247.954705 329.8548,248.131037 L327.562035,250.873049 C326.933529,251.616982 326.307161,252.365088 325.674379,253.110064 C324.853473,254.19414 324.440882,255.062236 324.440882,255.721654 C324.440882,255.954329 324.620455,256.072231 324.979602,256.072231 C325.670103,256.072231 326.386258,255.749826 327.137686,255.105014 C328.063343,254.447683 329.391971,253.395952 331.11395,251.947735 L331.268938,251.947735 Z M360.876599,228.038802 C360.876599,227.379384 360.522797,227.051761 359.817331,227.051761 C359.473149,227.051761 358.985736,227.206182 358.360437,227.511893 C357.668866,227.863514 357.324684,228.169225 357.324684,228.432158 L357.324684,228.586579 C357.460433,228.586579 357.651764,228.60536 357.908297,228.641878 C358.162692,228.67631 358.360437,228.696134 358.494048,228.696134 C358.59773,228.798386 358.738823,228.849511 358.920534,228.849511 C359.562936,229.609095 359.931702,229.988887 360.021488,229.988887 C360.274815,229.988887 360.493937,229.717607 360.67351,229.179221 C360.807121,228.741 360.876599,228.359121 360.876599,228.038802 Z M359.190963,229.988887 C359.190963,229.580924 358.996425,229.288776 358.60735,229.110357 C357.231691,229.110357 356.439645,229.217826 356.230143,229.419199 C355.571708,229.994104 354.674911,230.862199 353.540821,232.019312 L342.685196,244.674515 L342.675576,244.970836 C342.910731,244.970836 343.108475,244.918666 343.259188,244.819545 C344.591023,243.884673 346.457301,242.506363 348.852679,240.696092 C349.480116,240.136838 350.508386,239.233268 351.932145,237.97286 L358.067561,232.579609 C358.813645,231.919147 359.190963,231.056268 359.190963,229.988887 Z M342.830564,251.992809 C342.68092,252.123232 342.471418,252.309998 342.200989,252.561453 L342.133649,252.518675 L342.7194,251.947944 L342.78674,251.947944 L342.830564,251.992809 Z M341.391841,253.239653 L340.989939,253.65805 L340.877706,253.65805 C340.97925,253.557885 341.137446,253.403464 341.348017,253.196874 L341.391841,253.239653 Z M334.043237,251.683967 C333.864733,251.873863 333.630646,252.078367 333.34846,252.298521 L334.043237,251.683967 Z M362,228.060713 C362,228.968457 361.429214,230.002451 360.290848,231.15539 L357.122664,234.405531 C356.821238,234.756108 356.288932,235.297624 355.525746,236.027992 L350.449597,240.046064 L340.291956,248.126028 C339.813094,248.50582 339.034943,249.536683 337.954298,251.221748 C336.964507,252.741959 336.274006,253.913679 335.886,254.734822 C335.886,254.776557 335.878517,254.831857 335.86676,254.895503 C335.849657,254.96228 335.842175,255.010275 335.842175,255.040533 C335.842175,255.111483 335.85714,255.241906 335.886,255.433889 C335.900964,255.612308 335.900964,255.740644 335.886,255.830375 L336.065573,255.982709 C337.160114,255.982709 338.620215,255.289902 340.450151,253.900115 L340.561315,253.900115 C339.961669,254.645091 339.108697,255.360852 338.00026,256.048442 C336.76997,256.826806 335.752389,257.210772 334.94324,257.210772 C333.742879,257.210772 333.145371,256.765247 333.145371,255.873154 C333.145371,255.071835 333.551548,253.86151 334.359628,252.253655 C334.433381,252.168098 334.525305,252.025154 334.62685,251.838388 L334.672812,251.793523 C334.672812,251.544154 334.56913,251.423121 334.359628,251.423121 C334.809629,251.038113 335.428516,250.441297 336.225906,249.623284 L349.033321,234.485871 C349.528216,233.885925 350.986179,232.611954 353.41683,230.659783 C356.622425,228.061757 358.935498,226.766917 360.357119,226.766917 C361.450592,226.766917 362,227.198878 362,228.060713 Z M357.759722,252.671009 C357.759722,252.846297 357.668866,252.933941 357.489293,252.933941 L357.445469,252.978807 L357.378129,252.978807 L357.334304,252.933941 C357.406989,252.874468 357.513877,252.789954 357.647488,252.671009 L357.759722,252.671009 Z M352.569202,248.130202 C352.537135,248.172981 352.502931,248.206369 352.456969,248.215759 C352.425971,248.206369 352.411007,248.172981 352.411007,248.130202 L352.411007,248.106204 C352.425971,248.049861 352.442004,248.02169 352.456969,248.02169 L352.479415,248.02169 C352.537135,248.036297 352.569202,248.073859 352.569202,248.130202 Z M357.061738,253.239653 C356.133943,254.28095 354.670636,255.206431 352.680366,256.027574 C350.747817,256.817416 349.05363,257.211815 347.604218,257.211815 C345.445064,257.211815 344.367625,256.385455 344.367625,254.734822 C344.367625,254.018017 344.636985,253.31582 345.177842,252.62823 C345.715493,251.94064 346.345068,251.596323 347.064429,251.596323 C347.16918,251.596323 347.312411,251.609887 347.501604,251.641189 C347.68866,251.670403 347.827615,251.683967 347.917402,251.683967 L347.917402,252.210876 C347.917402,252.661618 347.536878,253.207308 346.772623,253.833338 C346.007299,254.461455 345.625706,255.040533 345.625706,255.567442 C345.625706,256.385455 345.984853,256.796548 346.704214,256.796548 C348.388781,256.796548 349.824298,255.863763 351.011832,254.008627 C351.205301,253.688308 351.966349,252.049152 353.287495,249.096375 L353.287495,248.69989 L353.018135,248.69989 C351.827394,249.577375 350.301022,250.573807 348.434744,251.683967 L348.34175,251.423121 C348.644246,251.157059 349.104936,250.749095 349.720616,250.194015 C349.708858,250.398518 349.81254,250.499727 350.038075,250.499727 C350.325606,250.499727 350.938079,250.134542 351.875494,249.402087 C352.819322,248.671718 353.287495,248.196979 353.287495,247.978911 C353.287495,247.789015 353.188088,247.699284 352.993551,247.712848 C353.115404,247.641898 353.752461,247.179679 354.905791,246.332452 C355.895581,245.599996 356.49309,245.236899 356.704729,245.236899 C356.939885,245.236899 357.061738,245.322456 357.061738,245.497744 C357.061738,245.981875 356.726107,246.442007 356.05057,246.880228 C355.122775,247.494781 354.612916,247.859966 354.525267,247.978911 C354.525267,248.358703 354.510302,248.973256 354.479305,249.81944 C354.403414,251.280178 354.29118,252.277653 354.140467,252.803518 C353.91707,253.562058 353.392246,254.435371 352.569202,255.413021 L352.569202,255.675954 C353.075855,255.66239 354.525267,254.852724 356.90568,253.239653 L357.061738,253.239653 Z M246.905464,233.95938 C246.443704,234.648013 245.666623,235.439941 244.566737,236.328904 C245.617454,235.394032 246.396673,234.605234 246.905464,233.95938 Z M252.616532,232.469427 C252.616532,230.581946 251.131847,229.63977 248.164614,229.63977 C247.595965,229.63977 247.103208,229.689853 246.682066,229.794191 C247.865325,230.306493 248.481005,230.854269 248.524829,231.437521 L248.524829,232.318137 C248.524829,233.90721 247.445252,235.510891 245.287168,237.118746 C244.869232,237.394199 244.293102,237.844941 243.556638,238.457407 L244.344408,238.457407 C245.992634,238.457407 247.73599,237.873113 249.578752,236.701392 C251.603226,235.401336 252.616532,233.992768 252.616532,232.469427 Z M243.178252,235.563061 C243.178252,235.356471 243.070294,235.255262 242.861861,235.255262 C242.517679,235.255262 242.220528,235.42116 241.974684,235.758173 C241.726702,236.094143 241.602711,236.44785 241.602711,236.813035 L241.602711,237.118746 C241.602711,237.194913 241.656155,237.228301 241.758769,237.228301 C242.016371,237.228301 242.31459,237.019625 242.657703,236.602271 C243.002954,236.187004 243.178252,235.838514 243.178252,235.563061 Z M242.006751,238.566963 L241.850693,238.566963 C241.610193,238.684865 241.297009,238.874761 240.907934,239.137694 C240.847007,239.150214 240.793563,239.20134 240.747601,239.292115 C240.823492,239.215948 241.070405,239.102219 241.491547,238.940494 C241.850693,238.822592 242.023853,238.698429 242.006751,238.566963 Z M240.592612,239.467403 L240.592612,239.422538 C240.577647,239.334893 240.548787,239.292115 240.504963,239.292115 L240.480379,239.292115 C240.420521,239.292115 240.387385,239.334893 240.387385,239.422538 L240.369214,239.467403 C240.38311,239.524789 240.413039,239.552961 240.455794,239.552961 L240.504963,239.552961 C240.562683,239.539397 240.592612,239.510182 240.592612,239.467403 Z M240.276221,239.576958 L240.276221,239.532093 C240.261257,239.443405 240.232397,239.40167 240.188572,239.40167 L240.14261,239.40167 C240.096648,239.40167 240.067788,239.443405 240.052823,239.532093 L240.052823,239.576958 C240.067788,239.664603 240.096648,239.709468 240.14261,239.709468 L240.188572,239.709468 C240.232397,239.709468 240.261257,239.664603 240.276221,239.576958 Z M240.008999,239.728249 L240.008999,239.664603 C239.994035,239.590522 239.963037,239.552961 239.919212,239.552961 L239.896766,239.552961 C239.833701,239.552961 239.803773,239.590522 239.803773,239.664603 L239.803773,239.728249 C239.803773,239.774158 239.833701,239.795026 239.896766,239.795026 L239.919212,239.795026 C239.980139,239.795026 240.008999,239.774158 240.008999,239.728249 Z M240.20995,247.035066 C240.20995,245.146541 239.170991,244.204366 237.087728,244.204366 C236.592833,244.204366 235.984636,244.306617 235.267412,244.511121 C234.444369,244.745882 233.92382,245.023422 233.714318,245.345828 C234.706246,244.861698 235.706725,244.619633 236.728582,244.619633 L237.783574,244.619633 C237.887257,244.619633 238.089276,244.699973 238.390703,244.861698 C239.348426,245.388607 239.90211,246.455988 240.052823,248.064886 C240.157574,247.758131 240.20995,247.414858 240.20995,247.035066 Z M233.873582,235.563061 C233.858618,235.548453 233.836171,235.539063 233.807311,235.539063 C233.610636,235.539063 233.513367,235.629837 233.513367,235.803039 C233.513367,235.816603 233.530469,235.823907 233.559329,235.823907 C233.768831,235.823907 233.873582,235.739393 233.873582,235.563061 Z M232.861346,236.393594 C232.84745,236.365423 232.825003,236.350815 232.796143,236.350815 L232.750181,236.350815 C232.720252,236.381074 232.704219,236.416549 232.704219,236.462458 L232.704219,236.507323 L232.750181,236.507323 L232.796143,236.507323 L232.839968,236.507323 L232.861346,236.507323 L232.861346,236.393594 Z M232.436997,236.813035 C232.419895,236.782776 232.398517,236.768169 232.368588,236.768169 L232.321557,236.768169 C232.293766,236.799471 232.275595,236.834946 232.275595,236.876681 L232.275595,236.92259 L232.344004,236.92259 L232.368588,236.92259 L232.436997,236.92259 L232.436997,236.813035 Z M248.096205,232.270141 L248.096205,231.855918 C247.843947,232.554985 247.445252,233.260312 246.905464,233.95938 C247.416392,233.172668 247.670788,232.381783 247.670788,231.591942 C247.670788,230.833402 247.056177,230.451523 245.825887,230.451523 C242.621361,230.451523 239.707573,231.692106 237.087728,234.180577 L237.087728,234.222312 C237.087728,234.471681 237.359226,235.005894 237.906497,235.823907 C238.453767,236.64505 238.726334,237.214737 238.726334,237.537143 C238.682509,237.565314 238.599136,237.602876 238.477283,237.645655 C237.957803,236.680525 237.318608,235.693484 236.568249,234.685575 L236.524424,234.752351 C236.299958,234.780523 235.357199,235.605839 233.696147,237.228301 C232.091746,238.79442 231.250532,239.655212 231.177847,239.819023 L231.017514,240.124735 L231.377729,240.124735 C234.735106,240.124735 238.001628,239.299418 241.176225,237.645655 C241.176225,235.876076 241.880622,234.991286 243.289416,234.991286 C243.396305,235.108145 243.445474,235.298041 243.445474,235.563061 C243.445474,236.118141 242.915305,236.844336 241.850693,237.731212 L242.186324,238.040054 C242.621361,237.850158 243.182527,237.479757 243.873029,236.92259 L244.566737,236.328904 C244.149871,236.711826 243.527778,237.28047 242.703665,238.040054 L242.592501,238.148566 L242.592501,238.302987 C243.77576,237.779208 244.944054,236.943457 246.098453,235.803039 C247.430288,234.471681 248.096205,233.295788 248.096205,232.270141 Z M239.469211,247.822821 C239.469211,246.171144 238.675027,245.345828 237.087728,245.345828 C236.217654,245.345828 235.425608,245.563895 234.706246,246.005246 C236.68262,246.178448 237.670272,247.003765 237.670272,248.481196 C237.670272,249.942977 236.832264,251.423539 235.15411,252.913491 C233.807311,254.12799 232.286284,255.076426 230.592097,255.764016 L230.750292,255.764016 C232.548161,255.764016 234.444369,254.88653 236.436776,253.131558 C238.459112,251.3192 239.469211,249.548578 239.469211,247.822821 Z M230.278912,256.356658 L230.278912,256.311792 C230.265017,256.224148 230.225468,256.181369 230.166679,256.181369 L230.142095,256.181369 C230.09827,256.181369 230.06941,256.224148 230.052308,256.311792 L230.052308,256.356658 C230.06941,256.442215 230.09827,256.490211 230.142095,256.490211 L230.166679,256.490211 C230.225468,256.490211 230.265017,256.442215 230.278912,256.356658 Z M237.35495,248.547973 C237.35495,247.130014 236.616349,246.420513 235.131664,246.420513 C234.545913,246.420513 234.156838,246.470596 233.963369,246.574934 C233.559329,246.793001 232.922272,247.551541 232.052197,248.853684 C231.183192,250.155827 230.750292,251.010359 230.750292,251.423539 C230.750292,252.049569 231.311458,252.364671 232.436997,252.364671 C232.689255,252.364671 233.044125,252.267636 233.490921,252.07774 C233.940922,251.887845 234.292587,251.792897 234.545913,251.792897 C234.099118,252.452315 233.379756,252.779938 232.391035,252.779938 C231.851247,252.779938 231.214189,252.537873 230.480932,252.05896 C230.166679,252.74655 230.006346,253.789933 230.006346,255.195371 C230.006346,255.384224 230.023448,255.543862 230.052308,255.676371 C231.688776,255.161983 233.25149,254.2605 234.750071,252.955226 C236.484876,251.45171 237.35495,249.980539 237.35495,248.547973 Z M241.758769,238.302987 L241.445584,238.040054 L241.379313,238.040054 C239.48952,238.932147 237.677755,239.640605 235.940812,240.1696 C234.621804,240.564 232.750181,240.819629 230.321668,240.936488 C229.769053,241.374709 229.403493,241.792062 229.221782,242.186461 L229.693162,242.186461 C233.889616,242.186461 237.911841,240.893709 241.758769,238.302987 Z M224.279245,243.481301 L223.964992,243.481301 C223.858103,243.481301 223.775798,243.492778 223.718078,243.52408 C223.775798,243.600247 223.873067,243.632591 224.008816,243.632591 L224.077225,243.632591 C224.227938,243.632591 224.330551,243.600247 224.391478,243.52408 L224.436371,243.52408 C224.391478,243.492778 224.340171,243.481301 224.279245,243.481301 Z M235.243897,233.191449 L235.243897,233.14867 C235.243897,232.960861 235.013017,232.666627 234.545913,232.270141 C232.315144,230.339881 230.347321,229.462395 228.636032,229.63977 L228.884014,229.462395 C228.358121,229.36223 227.566075,229.310061 226.502531,229.310061 C225.846234,229.310061 225.139699,229.742022 224.391478,230.605944 L224.45668,230.605944 C224.893855,230.605944 225.510603,230.458827 226.312269,230.166679 C227.113935,229.874532 227.746717,229.727415 228.210614,229.727415 L228.36881,229.794191 C226.33044,230.306493 225.042431,230.729063 224.502642,231.066076 C223.379241,231.753666 222.818075,232.877391 222.818075,234.44351 C222.818075,235.68618 223.231734,236.777559 224.05264,237.721822 C224.87996,238.666084 225.926401,239.277507 227.199446,239.552961 C229.851357,236.891288 232.534266,234.771132 235.243897,233.191449 Z M226.502531,256.490211 C224.720695,255.873571 223.595156,255.047211 223.132328,254.009044 C222.998717,253.702289 222.76463,253.24007 222.434344,252.628647 C222.434344,252.701684 222.430069,252.813326 222.415104,252.967747 C222.398002,253.121124 222.39052,253.225463 222.39052,253.284936 C222.39052,254.264673 222.71653,255.043037 223.367483,255.622115 C224.019505,256.20015 224.854306,256.490211 225.875094,256.490211 L226.502531,256.490211 Z M223.556676,243.371746 C221.895625,243.094205 220.428041,242.37114 219.153927,241.19942 L219.153927,241.353841 C220.562721,242.726934 221.95762,243.415568 223.333279,243.415568 C223.40917,243.415568 223.483992,243.40096 223.556676,243.371746 Z M219.153927,241.111776 L219.153927,241.066911 C219.138963,240.981353 219.110103,240.936488 219.066278,240.936488 L219.042763,240.936488 C218.980767,240.936488 218.952976,240.981353 218.952976,241.066911 L218.952976,241.111776 C218.952976,241.168119 218.980767,241.19942 219.042763,241.19942 L219.066278,241.19942 C219.125067,241.184813 219.153927,241.156642 219.153927,241.111776 Z M226.660727,240.212379 L226.502531,240.124735 C223.761903,238.324898 222.39052,236.462458 222.39052,234.529067 C222.39052,234.23692 222.468548,233.810176 222.626744,233.247792 C222.784939,232.685408 222.861899,232.256577 222.861899,231.96443 C221.980067,232.256577 221.024481,233.105892 219.99728,234.510286 C218.971147,235.914681 218.45915,237.077011 218.45915,237.997275 C218.45915,238.245601 218.546799,238.487666 218.72851,238.722427 C219.415805,239.640605 220.339324,240.415839 221.491585,241.047086 C222.705842,241.702331 223.865585,242.034127 224.97616,242.034127 L225.355615,242.034127 C225.384475,242.034127 225.598252,241.759717 225.996947,241.208811 C226.395643,240.663121 226.614765,240.331325 226.660727,240.212379 Z M225.088393,229.376838 L224.97616,229.376838 C223.148361,229.376838 221.510825,230.03417 220.065688,231.35092 C218.619483,232.666627 217.894777,234.210835 217.894777,235.978327 L217.894777,236.813035 L218.05511,237.077011 C218.608794,235.173878 219.678751,233.601499 221.268187,232.360916 C221.836836,232.052074 222.631019,231.539772 223.64967,230.824011 C223.964992,230.503692 224.441716,230.021649 225.088393,229.376838 Z M253.286725,232.776182 C253.286725,234.562456 252.300141,236.094143 250.32163,237.382722 C248.538725,238.552355 246.687411,239.137694 244.771964,239.137694 C244.531464,239.137694 244.173386,239.111609 243.692387,239.05944 C243.214594,239.007271 242.846896,238.983273 242.592501,238.983273 C240.944276,239.819023 239.707573,240.415839 238.885598,240.782067 C237.267302,241.525999 236.014565,242.01013 235.131664,242.231327 C234.757553,242.347143 234.195318,242.501563 233.447096,242.689372 C232.231771,242.912657 230.43497,243.239236 228.052419,243.677457 C226.180796,245.886301 225.243381,248.438418 225.243381,251.332764 C225.243381,254.33145 226.479016,255.830792 228.951354,255.830792 C228.966318,255.830792 229.005867,255.818272 229.064656,255.797404 C229.126651,255.773406 229.17582,255.764016 229.221782,255.764016 C229.267744,253.819148 229.506106,251.880541 229.941144,249.952368 C230.074755,249.499539 230.254328,248.818209 230.480932,247.912552 L230.480932,247.822821 C232.09816,245.237316 234.282967,243.941433 237.041766,243.941433 C239.620993,243.941433 240.907934,245.094372 240.907934,247.407554 C240.907934,248.4885 240.518859,249.672741 239.736433,250.960276 C237.97063,253.93079 234.742588,255.911133 230.052308,256.905478 C230.157059,257.505423 230.32915,258.397517 230.570719,259.580714 C230.570719,259.592191 230.578201,259.616189 230.592097,259.645404 C230.592097,259.808172 230.555754,259.925031 230.480932,259.998067 C230.405041,260.010588 230.351597,259.962592 230.321668,259.84469 C230.113235,259.198835 229.828911,258.221185 229.468695,256.905478 C229.049691,256.803226 228.488525,256.751057 227.783059,256.751057 C227.605624,256.751057 227.33092,256.775055 226.964291,256.827224 C226.594456,256.879393 226.321889,256.905478 226.142316,256.905478 C224.795517,256.905478 223.718078,256.497515 222.90893,255.676371 C222.098713,254.855228 221.695743,253.789933 221.695743,252.474226 C221.695743,251.887845 222.037787,250.469886 222.728288,248.216177 C223.386723,246.081413 223.890169,244.657194 224.232214,243.941433 C222.15002,243.868396 220.459039,243.116116 219.153927,241.68355 C217.850953,240.247854 217.2,238.500186 217.2,236.43846 C217.2,234.655317 217.739788,233.126759 218.819365,231.855918 C219.717231,230.771842 221.155954,229.894356 223.132328,229.224504 C223.538505,229.077387 223.955372,228.989742 224.391478,228.959484 C224.436371,228.959484 225.409059,228.717419 227.31168,228.235376 C228.405152,227.958879 229.393873,227.818022 230.278912,227.818022 C232.53961,227.818022 234.195318,228.508742 235.243897,229.879749 C235.454468,230.159376 235.557081,230.439002 235.557081,230.714456 L235.401023,230.714456 C234.667766,229.061736 232.958614,228.235376 230.278912,228.235376 C229.18544,228.235376 228.30147,228.375189 227.624864,228.653773 C230.09827,229.397705 231.580818,229.879749 232.076782,230.103033 C233.092225,230.567339 234.383442,231.459432 235.940812,232.776182 C240.839525,230.465087 244.810444,229.310061 247.85143,229.310061 C251.473891,229.310061 253.286725,230.465087 253.286725,232.776182 Z" id="Fill-38"></path>
                </g>
            </g>
        </g>
    </g>
</svg>