<?xml version="1.0" encoding="UTF-8"?>
<svg width="88px" height="63px" viewBox="0 0 88 63" version="1.1" xmlns="http://www.w3.org/2000/svg" xmlns:xlink="http://www.w3.org/1999/xlink">
    <!-- Generator: sketchtool 49.3 (51167) - http://www.bohemiancoding.com/sketch -->
    <title>B739CDBE-072E-4E66-84FB-6B0DC6034867</title>
    <desc>Created with sketchtool.</desc>
    <defs></defs>
    <g id="Symbols" stroke="none" stroke-width="1" fill="none" fill-rule="evenodd">
        <g id="header/logo-riviera">
            <g id="logo">
                <path d="M80.9519742,39.3832881 L14.1323613,39.3832881 L13.939071,39.3832881 C13.939071,39.3832881 12.6970065,37.5330504 12.1968774,36.9867061 C11.8361032,36.5921816 10.9715871,35.9182881 10.4766194,35.7171529 C9.52126452,35.3290832 6.39042581,35.1578988 6.39042581,35.1578988 C5.27223226,35.0716611 5.55171613,35.2170258 4.5868129,35.2872553 C4.51532903,35.2924193 4.59997419,35.1447307 4.60694194,35.0734684 C6.47713548,15.6989029 22.843329,0.501185656 42.6905548,0.501185656 C63.7878452,0.501185656 80.9519742,17.6741078 80.9519742,38.7822061 L80.9519742,39.3832881 Z" id="Fill-1" fill="#FEFEFE"></path>
                <path d="M75.4071226,29.4060246 C76.6608,33.5549877 76.0520258,36.2505615 75.4017032,37.4643443 C74.7506065,38.6796762 74.2285419,39.376291 72.1802839,39.3739672 C70.1237677,39.3716434 52.6262194,39.3716434 51.2920258,39.3822295 C50.0832516,39.3915246 48.9498323,38.3654508 48.6933161,37.5159836 C48.4368,36.666 48.7947355,35.6076516 49.7629935,34.7718689 C50.7309935,33.9353115 66.2104774,23.1401066 67.2179613,22.31775 C68.9588645,20.8966352 69.9619613,21.3717172 70.8414452,22.000168 C71.6060903,22.5467705 74.3851871,26.0226148 75.4071226,29.4060246 Z M62.9562581,11.9730725 C66.4442581,14.5452283 67.568129,17.0693594 67.7748387,18.4318635 C67.9802581,19.7943676 68.0042581,20.6988307 66.3374194,21.8911832 C64.6710968,23.0819865 50.5536774,33.653593 49.6127742,34.4101094 C48.6700645,35.1679168 47.1273548,34.9995725 46.4138065,34.4731094 C45.6994839,33.9463881 45.3526452,32.8833922 45.628,31.6337201 C45.9030968,30.3845643 51.8403871,12.4662283 52.1554839,11.2028717 C52.6987097,9.02214221 53.7872258,8.80086762 54.8659355,8.77737172 C55.8070968,8.75671598 60.1123871,9.87625697 62.9562581,11.9730725 Z M42.9350968,4.91490369 C47.2677419,4.91490369 49.6690323,6.27921516 50.644,7.25364959 C51.6176774,8.22808402 52.1730323,8.94225615 51.5376774,10.891125 C50.9033548,12.8399939 45.8086452,29.7283832 45.4994839,30.897498 C45.1900645,32.0668709 43.8494194,32.8463668 42.9611613,32.8463668 C42.0741935,32.8463668 41.1645161,32.1967439 40.6458065,31.0273709 C40.1263226,29.8585143 34.2788387,11.9097111 33.7830968,10.7062561 C32.928129,8.62777254 33.6726452,7.804125 34.527871,7.14443238 C35.2729032,6.57020287 39.4029677,4.91490369 42.9350968,4.91490369 Z M22.6568774,12.1667201 C25.4656516,10.0229127 29.7518452,8.83133484 30.6924903,8.83624057 C31.7724903,8.84140451 32.8643613,9.04460533 33.4442323,11.2157816 C33.7797161,12.473716 40.0148129,30.2905807 40.3115871,31.5356053 C40.607329,32.7793389 40.2785548,33.847757 39.5724903,34.3868717 C38.8674581,34.9257283 37.3288774,35.1198922 36.3737806,34.3783512 C35.4194581,33.636552 21.1283613,23.3027447 19.4421677,22.1395684 C17.7557161,20.9758758 17.7637161,20.0701217 17.9466839,18.7042611 C18.1309419,17.3389168 19.2135226,14.7972283 22.6568774,12.1667201 Z M35.992671,34.8369861 C36.9557677,35.6787074 37.3082839,36.7393795 37.0458323,37.5875557 C36.7828645,38.435732 35.6048,39.3716951 34.3957677,39.3716951 L13.5562839,39.3716951 C13.4731871,39.3716951 13.336671,39.4426992 13.3144774,39.3678221 C12.992671,38.2777156 12.8850581,37.9335393 12.1108645,36.7499656 C11.8091871,36.2890844 10.8636387,35.4806705 9.70725161,35.2000107 C9.63834839,35.1834861 9.68970323,35.0582607 9.68196129,34.9857074 C9.53099355,33.568982 9.65150968,31.6753672 10.3820903,29.3120926 C11.4257032,25.9348795 14.2259613,22.4763344 14.9947355,21.9338631 C15.8770581,21.3110926 16.8837677,20.8422074 18.6153806,22.274941 C19.6182194,23.1040107 35.0295742,33.9952648 35.992671,34.8369861 Z M82.1256258,39.3832881 L80.3233032,39.3832881 C80.3233032,18.6617102 63.4737548,1.80327172 42.762529,1.80327172 C22.0515613,1.80327172 5.20175484,18.6617102 5.20175484,39.3832881 L3.39943226,39.3832881 C3.39943226,17.6673947 21.0577548,2.58196721e-05 42.762529,2.58196721e-05 C64.4675613,2.58196721e-05 82.1256258,17.6673947 82.1256258,39.3832881 Z" id="Fill-13" fill="#FBED25"></path>
                <path d="M65.3980387,46.9134922 L66.3972645,46.9134922 C68.5939097,46.9134922 69.5379097,46.0418201 69.5379097,44.189775 C69.5379097,41.9186766 68.2488774,41.3914389 66.1425548,41.3914389 C65.8163613,41.3914389 65.6344258,41.4097709 65.3980387,41.4278447 L65.3980387,46.9134922 Z M71.4803613,44.061193 C71.4803613,45.768648 70.0821677,46.9134922 67.8850065,47.0947463 C68.4308129,47.131152 69.447329,48.3480332 69.7554581,48.7660537 L71.2803613,50.7642381 C72.0429419,51.7632012 73.0408774,52.7435742 74.4762323,52.7435742 L74.4762323,53.1432627 L71.2444903,53.1432627 C70.9358452,52.9080455 70.4643613,52.5439881 69.6462968,51.4179922 L67.7582968,48.8205332 C66.6875871,47.3495865 66.3244903,47.3495865 65.6524903,47.3495865 L65.3980387,47.3495865 L65.3980387,50.018566 C65.3980387,52.344402 65.3804903,52.7435742 66.9053935,52.7435742 L67.4860387,52.7435742 L67.4860387,53.1432627 L61.7312,53.1432627 L61.7312,52.7435742 L62.1126194,52.7435742 C63.6561032,52.7435742 63.6561032,52.344402 63.6561032,50.018566 L63.6561032,44.1164471 C63.6561032,41.4642504 63.5281032,41.5187299 61.8220387,41.5187299 L61.8220387,41.119816 C63.1105548,41.0286725 65.0901677,40.9558611 66.2697806,40.9558611 C67.0501677,40.9558611 71.4803613,40.8825332 71.4803613,44.061193 Z M5.54498065,43.7230844 L7.05569032,43.7230844 C10.3772387,43.7230844 11.8048516,42.4039574 11.8048516,39.6032975 C11.8048516,36.1700557 9.85517419,35.3730025 6.67117419,35.3730025 C6.17698065,35.3730025 5.90188387,35.4006295 5.54498065,35.4285148 L5.54498065,43.7230844 Z M14.7421419,39.410941 C14.7421419,41.9918754 12.6275613,43.7230844 9.3060129,43.9972893 C10.130529,44.0517689 11.6673032,45.8919369 12.1344,46.5242607 L14.4394323,49.5454205 C15.5919484,51.0563877 17.1029161,52.5394697 19.2709161,52.5394697 L19.2709161,53.1433918 L14.3852387,53.1433918 C13.9184,52.7868221 13.2048516,52.2376377 11.9692387,50.5340557 L9.1140129,46.6063672 C7.49491613,44.3822607 6.94472258,44.3822607 5.92949677,44.3822607 L5.54498065,44.3822607 L5.54498065,48.4191664 C5.54498065,51.9352893 5.51814194,52.5394697 7.82369032,52.5394697 L8.70188387,52.5394697 L8.70188387,53.1433918 L-5.16129032e-05,53.1433918 L-5.16129032e-05,52.5394697 L0.576206452,52.5394697 C2.9104,52.5394697 2.9104,51.9352893 2.9104,48.4191664 L2.9104,39.4930475 C2.9104,35.4832525 2.71762581,35.5648426 0.136980645,35.5648426 L0.136980645,34.9606623 C2.08665806,34.8235598 5.07891613,34.713568 6.86369032,34.713568 C8.04356129,34.713568 14.7421419,34.604609 14.7421419,39.410941 Z M59.807329,49.4017857 L59.5528774,53.1433143 L49.6044903,53.1433143 L49.6044903,52.7436258 L49.8408774,52.7436258 C51.4021677,52.7436258 51.4021677,52.3444537 51.4021677,50.0186176 L51.4021677,44.1162406 C51.4021677,41.737216 51.3838452,41.5187816 49.8408774,41.5187816 L49.8408774,41.1196094 L58.4462968,41.1196094 L58.7182968,44.1162406 L58.3004903,44.1162406 C57.7198452,41.5546709 56.8486194,41.5187816 54.8155871,41.5187816 L53.1448774,41.5187816 L53.1448774,46.5864086 L54.4344258,46.5864086 C56.1221677,46.5864086 56.231329,46.1686463 56.231329,44.7697365 L56.6486194,44.7697365 L56.6486194,48.8933963 L56.231329,48.8933963 C56.231329,47.0767242 55.8318452,46.9863553 54.4517161,46.9863553 L53.1448774,46.9863553 L53.1448774,49.8373635 C53.1448774,52.5985193 53.2537806,52.7436258 54.9059097,52.7436258 L55.7954581,52.7436258 C56.8117161,52.7436258 58.591071,52.7436258 59.3902968,49.4017857 L59.807329,49.4017857 Z M42.1619097,41.1196869 L47.6447484,41.1196869 L47.6447484,41.518859 L47.3902968,41.518859 C45.8109419,41.518859 45.7745548,41.664482 45.7745548,44.116318 L45.7745548,50.0186951 C45.7745548,52.3445311 45.7745548,52.7437033 47.2999742,52.7437033 L47.6447484,52.7437033 L47.6447484,53.1433918 L42.1619097,53.1433918 L42.1619097,52.7437033 L42.5064258,52.7437033 C44.031071,52.7437033 44.031071,52.3445311 44.031071,50.0186951 L44.031071,44.116318 C44.031071,41.6820393 43.9949419,41.518859 42.4158452,41.518859 L42.1619097,41.518859 L42.1619097,41.1196869 Z M34.0658839,53.4338373 L29.5089806,42.8813373 C29.1461419,42.0455545 28.8553032,41.5188332 27.6026581,41.5188332 L27.6026581,41.1196611 L32.7771097,41.1196611 L32.7771097,41.5188332 C31.8147871,41.5188332 31.1427871,41.5547225 31.1427871,42.2092512 C31.1427871,42.4633168 31.1974968,42.554202 31.5605935,43.4078004 L35.0098839,51.4005381 L37.7874323,44.7519725 C38.4955613,43.0628496 38.4955613,42.8265996 38.4955613,42.5900914 C38.4955613,41.6280504 37.5874323,41.5188332 37.0431742,41.5188332 L37.0431742,41.1196611 L40.7100129,41.1196611 L40.7100129,41.5188332 C39.8029161,41.5188332 39.294529,42.3176939 38.8950452,43.2621775 L34.6289806,53.4338373 L34.0658839,53.4338373 Z M20.6860903,41.1196869 L26.168929,41.1196869 L26.168929,41.518859 L25.9147355,41.518859 C24.3356387,41.518859 24.2992516,41.664482 24.2992516,44.116318 L24.2992516,50.0186951 C24.2992516,52.3445311 24.2992516,52.7437033 25.8238968,52.7437033 L26.168929,52.7437033 L26.168929,53.1433918 L20.6860903,53.1433918 L20.6860903,52.7437033 L21.0313806,52.7437033 C22.5560258,52.7437033 22.5560258,52.3445311 22.5560258,50.0186951 L22.5560258,44.116318 C22.5560258,41.6820393 22.5196387,41.518859 20.9402839,41.518859 L20.6860903,41.518859 L20.6860903,41.1196869 Z M83.0444645,48.3122471 L80.9193032,43.1901406 L78.8140129,48.3122471 L83.0444645,48.3122471 Z M78.6323355,48.7114193 L77.9234323,50.4736119 C77.8155613,50.7643414 77.6336258,51.3641324 77.6336258,51.6176816 C77.6336258,52.1993988 78.0514323,52.7436775 78.9404645,52.7436775 L78.9404645,53.143366 L75.3642065,53.143366 L75.3642065,52.7436775 C75.8725935,52.7258619 76.6171097,52.4165422 77.0888516,51.3088783 L81.4098839,40.9376324 L81.7546581,40.9376324 L86.166271,51.3816898 C86.4377548,52.0173701 86.8204645,52.7436775 87.782529,52.7436775 L87.782529,53.143366 L83.0444645,53.143366 L83.0444645,52.7436775 C83.8963355,52.7436775 84.5324645,52.7622676 84.5324645,52.0901816 C84.5324645,51.8900791 84.4230452,51.6365299 84.2965935,51.3460586 L83.2067871,48.7114193 L78.6323355,48.7114193 Z" id="Fill-26" fill="#000000"></path>
                <path d="M71.0719226,60.7326713 C71.0321806,60.7543598 70.9782452,60.8013516 70.9088258,60.8741631 L71.0234065,60.7491959 C71.0342452,60.74145 71.0484387,60.7362861 71.0665032,60.7326713 L71.0719226,60.7326713 Z M70.9088258,60.8741631 L70.7034065,61.1078311 C70.7470194,61.0561918 70.8151484,60.9787328 70.9088258,60.8741631 Z M70.7034065,61.1078311 L70.6917935,61.1184172 C70.6812129,61.1290033 70.6672774,61.137782 70.6489548,61.1455279 C70.6600516,61.1349418 70.6649548,61.1217738 70.6649548,61.1078311 L70.7034065,61.1078311 Z M73.8987613,58.1822041 C73.641729,58.445823 73.3090839,58.8184008 72.9003097,59.2999377 C72.7880516,59.419741 72.6345032,59.6004787 72.4391484,59.8429254 C72.4355355,59.8540279 72.4267613,59.8715852 72.4120516,59.8968885 L72.3903742,59.9351016 C72.3903742,59.9384582 72.3870194,59.942073 72.3790194,59.9454295 C72.3756645,59.9490443 72.3746323,59.9490443 72.3746323,59.9454295 L72.3746323,59.9673762 C72.3746323,59.9818352 72.3790194,59.9965525 72.3903742,60.0112697 L73.1552774,60.0112697 L73.2582452,60.0489664 L73.2205677,60.0980238 L72.2711484,60.0980238 C72.2314065,60.0980238 72.0272774,60.3740361 71.6579871,60.9281262 C71.3865032,61.3407246 71.2515355,61.6830934 71.2515355,61.9542 C71.2515355,61.9789869 71.3067613,61.9918967 71.4195355,61.9918967 C71.6435355,61.9918967 72.0716645,61.7182082 72.705471,61.1723803 L72.7488258,61.1723803 C72.0213419,61.8966221 71.4195355,62.2583557 70.9418581,62.2583557 C70.7070194,62.2583557 70.5890839,62.1568844 70.5890839,61.9542 C70.5890839,61.809868 70.7470194,61.4545893 71.0616,60.8906877 C71.0683097,60.8759705 71.081471,60.854282 71.0987613,60.8248475 C71.0987613,60.7786303 71.0902452,60.7473885 71.0719226,60.7326713 L71.0832774,60.7272492 L71.0665032,60.7326713 C71.0590194,60.7298311 71.0520516,60.7272492 71.0450839,60.7272492 L71.5826323,60.1896836 L71.5826323,60.1086098 L71.0450839,60.1086098 C71.0272774,60.078659 70.9911484,60.0611016 70.9366968,60.0541303 L71.0832774,60.0541303 C71.2856,60.0541303 71.4990194,60.0399295 71.7232774,60.0112697 C71.7666323,59.9784787 72.0401806,59.674323 72.5423742,59.0990607 C72.7090839,58.9110934 72.9003097,58.7151221 73.1173419,58.5132123 C73.3924387,58.255532 73.6311484,58.12695 73.8329548,58.12695 C73.8770839,58.12695 73.8987613,58.1457984 73.8987613,58.1822041 Z M65.0512774,59.8046607 C65.0512774,59.7424352 65.0166968,59.6871811 64.9480516,59.6363164 C64.937471,59.6363164 64.921471,59.634509 64.9023742,59.6308943 C64.8825032,59.6272795 64.8670194,59.6257303 64.8559226,59.6257303 C64.537471,59.6257303 64.2732129,59.7202303 64.0639226,59.9079393 C63.9733419,59.9866893 63.9049548,60.0540787 63.8579871,60.1088164 C63.7674065,60.2133861 63.7219871,60.2954926 63.7219871,60.3530705 L63.7981161,60.3530705 C64.1810839,60.1573574 64.5772129,60.0218041 64.9862452,59.9453779 C65.0296,59.9020008 65.0512774,59.8552672 65.0512774,59.8046607 Z M65.5612129,61.096677 C64.9568258,61.6972426 64.5268903,62.0499393 64.2698581,62.1550254 C64.2732129,62.1039025 64.2515355,62.0788574 64.2053419,62.0788574 C64.1795355,62.0788574 63.9493419,62.1475377 63.5157935,62.2854148 L63.5157935,62.3504803 C63.577471,62.3504803 63.6701161,62.3347303 63.7957935,62.3042631 C63.9201806,62.2737959 64.0151484,62.2583041 64.0796645,62.2583041 L64.1018581,62.2583041 C63.8990194,62.3698451 63.6912774,62.426132 63.4776,62.426132 C63.3472774,62.426132 63.1797935,62.3698451 62.9730839,62.2583041 C62.745471,62.138759 62.6316645,62.0246361 62.6316645,61.9161934 L62.6316645,61.1994393 C62.7044387,61.1348902 62.7560516,61.0561402 62.7888258,60.9662877 C62.9191484,60.5900951 63.1640516,60.2614107 63.5235355,59.9807508 C63.8837935,59.7008656 64.2605677,59.5604066 64.6546323,59.5604066 C65.1034065,59.5604066 65.3281806,59.7142918 65.3281806,60.0218041 C65.3281806,60.5831238 65.1792774,60.8637836 64.8830194,60.8637836 C64.7883097,60.8637836 64.7416,60.8214393 64.7416,60.7380418 C64.7416,60.7091238 64.7545032,60.6657467 64.7800516,60.6076525 C64.8048258,60.5500746 64.817729,60.503341 64.817729,60.466677 C64.817729,60.4127139 64.7924387,60.2800008 64.7416,60.0700869 C64.4884387,60.0700869 64.1759226,60.3042713 63.8040516,60.7698 C63.4308903,61.2363615 63.2443097,61.601968 63.2443097,61.8661033 C63.2443097,62.0365131 63.3570839,62.1222344 63.5810839,62.1222344 C64.0907613,62.1222344 64.7379871,61.780382 65.5230194,61.096677 L65.5612129,61.096677 Z M60.0250323,62.2853115 L60.1228387,62.2853115 L60.1228387,62.2202459 L60.0250323,62.2202459 L60.0250323,62.2853115 Z M61.5932903,60.3423811 C61.5932903,60.088832 61.5837419,59.926168 61.5661935,59.853873 C61.5150968,59.67675 61.3976774,59.5874139 61.2129032,59.5874139 C60.888,59.5874139 60.5710968,59.769959 60.2637419,60.1358238 L60.2637419,60.2119918 C60.3716129,60.2119918 60.5300645,60.1709385 60.7354839,60.0893484 C60.9419355,60.0077582 61.0990968,59.9672213 61.2077419,59.9672213 C61.2258065,59.9672213 61.24,59.9690287 61.2510968,59.9726434 L61.2892903,59.9948484 C60.928,60.1861721 60.5569032,60.4701885 60.1770323,60.8466393 C59.7251613,61.299 59.4985806,61.6806148 59.4985806,61.9917418 L59.4985806,62.0516434 C59.5027097,62.0810779 59.5027097,62.10225 59.4985806,62.1174836 L59.5806452,62.1820328 C60.0172903,62.1820328 60.4696774,61.9215123 60.9383226,61.4007295 C60.9824516,61.2298033 61.0606452,61.0748852 61.1731613,60.9333934 C61.2929032,60.8037787 61.4123871,60.6744221 61.5329032,60.5484221 C61.5731613,60.4972992 61.5932903,60.4291352 61.5932903,60.3423811 Z M62.243871,61.1618975 C62.243871,61.2375492 62.1230968,61.3408279 61.8805161,61.4704426 C61.691871,61.5763033 61.5685161,61.6362049 61.5086452,61.6501475 C61.4490323,61.6643484 61.3068387,61.6718361 61.0828387,61.6718361 C61.0980645,61.6718361 60.9465806,61.791123 60.6299355,62.0299549 C60.3135484,62.2687869 60.0090323,62.3885902 59.715871,62.3885902 C59.563871,62.3885902 59.4175484,62.3428893 59.2769032,62.2525205 C59.0916129,62.1368484 59,62.0245328 59,61.9160902 C59,61.8368238 59.0059355,61.7201189 59.0188387,61.5657172 C59.0314839,61.411832 59.0376774,61.2974508 59.0376774,61.2217992 C59.0376774,61.1776475 59.0175484,61.1582828 58.9775484,61.1618975 C59.0903226,60.9914877 59.259871,60.7402623 59.488,60.4069303 C59.6575484,60.1544139 59.9009032,59.943209 60.2180645,59.7748648 C60.5336774,59.6062623 60.8446452,59.5228648 61.147871,59.5228648 C61.3292903,59.5228648 61.4676129,59.5786352 61.5661935,59.6906926 C61.6018065,59.7340697 61.68,59.8698811 61.7992258,60.098127 C61.8929032,60.2788648 61.9406452,60.3885984 61.9406452,60.4291352 C61.9406452,60.5448074 61.9145806,60.6439549 61.8642581,60.7273525 C61.6869677,61.0126598 61.4828387,61.2721475 61.2510968,61.5034918 L61.2510968,61.5574549 C61.4136774,61.5574549 61.5205161,61.5491926 61.5708387,61.5303443 C61.7705806,61.4583074 61.9945806,61.3351475 62.243871,61.1618975 Z M72.7352516,55.0769238 C72.7352516,54.9031574 72.6513806,54.8164033 72.4820903,54.8164033 C72.3958968,54.8164033 72.2712516,54.8615877 72.1091871,54.9519566 C71.9339613,55.0464566 71.8454452,55.1290795 71.8454452,55.2013746 C71.8454452,55.2377803 71.8758968,55.2801246 71.9355097,55.3294402 C71.9943484,55.3779811 72.0248,55.4167107 72.0248,55.4456287 L72.0248,55.6253336 C72.0248,55.7015016 71.9989935,55.8071041 71.948671,55.9457557 C71.8980903,56.0828582 71.8722839,56.1900098 71.8722839,56.2656615 L71.9589935,56.2656615 C72.476671,55.7443623 72.7352516,55.3480303 72.7352516,55.0769238 Z M71.3466065,55.407932 L71.3466065,55.3317639 C71.1471226,55.3317639 70.8983484,55.4890057 70.5979613,55.8042639 C70.3915097,56.0467107 70.1855742,56.2891574 69.9796387,56.5316041 L69.9796387,56.5966697 L70.0441548,56.5966697 L71.3466065,55.407932 Z M69.1651871,62.095227 C69.1615742,62.1058131 69.1582194,62.1117516 69.1546065,62.1117516 L69.1491871,62.1117516 C69.1417032,62.1081369 69.1347355,62.1021984 69.1277677,62.095227 C69.1277677,62.0810262 69.1311226,62.0717311 69.1383484,62.0681164 C69.1528,62.0681164 69.1615742,62.0750877 69.1651871,62.0898049 L69.1651871,62.095227 Z M69.6100903,59.9565836 L69.6100903,59.7014852 C69.6100903,59.6508787 69.5543484,59.6255754 69.4420903,59.6255754 C69.3011871,59.6255754 69.0490581,59.7412475 68.6882839,59.9725918 L68.6882839,60.0487598 C68.7458323,60.0487598 68.8284129,60.0361082 68.9352516,60.0113213 C69.0415742,59.986018 69.1218323,59.9725918 69.1765419,59.9725918 L69.2033806,59.9725918 C69.2433806,59.9762066 69.3318968,59.9947967 69.4691871,60.0270713 L69.5290581,60.0381738 L69.5507355,60.0487598 L69.5455742,60.0487598 C69.588929,60.0487598 69.6100903,60.0182926 69.6100903,59.9565836 Z M71.8183484,55.598223 L71.8183484,55.4456287 C71.7783484,55.3704934 71.7331871,55.3317639 71.6828645,55.3317639 L70.7494452,56.2656615 C70.6521548,56.3601615 70.4983484,56.5174033 70.2882839,56.7381615 L69.5940903,57.5899525 L68.2054452,59.2945672 C68.1543484,59.3562762 68.1290581,59.4102393 68.1290581,59.4572311 L68.2441548,59.4577475 L70.5551226,57.5527721 C70.8549935,57.3103254 71.1282839,57.0152066 71.3737032,56.6676738 C71.6704774,56.2509443 71.8183484,55.8951492 71.8183484,55.598223 Z M69.1277677,60.4833049 L69.1277677,60.1739852 C69.1277677,60.1298336 69.0678968,60.1086615 68.9481548,60.1086615 C68.6477677,60.1086615 68.2898323,60.2930139 67.8746065,60.6622352 L67.8580903,60.6839238 C67.8580903,60.7631902 67.964929,60.803727 68.1786065,60.803727 C68.6993806,60.803727 69.0149935,60.6968336 69.1277677,60.4833049 Z M73.0227355,55.091641 C73.0227355,55.3617148 72.8475097,55.6578664 72.4960258,55.9826779 C72.1780903,56.2896738 71.7022194,56.7335139 71.0697032,57.3134238 L70.1073806,58.0936943 L68.1786065,59.6361615 C68.0952516,59.7048418 67.788929,60.1357721 67.2614452,60.9281779 L67.2614452,60.9935016 C67.3264774,60.9935016 67.3675097,60.9844648 67.3863484,60.966391 C67.9502194,60.4884689 68.2957677,60.2026451 68.4224774,60.1086615 C68.9435097,59.7177516 69.3352516,59.5228131 69.5995097,59.5228131 C69.8782194,59.5228131 70.0173161,59.6284156 70.0173161,59.8427189 C70.0173161,59.943932 69.9254452,60.1140836 69.7404129,60.3529156 C69.7404129,60.3888049 69.7189935,60.432182 69.6758968,60.4833049 C69.5995097,60.570059 69.3775742,60.6570713 69.0080258,60.7438254 C68.6748645,60.819477 68.5091871,60.8987434 68.5091871,60.982141 C68.5091871,61.0332639 68.5458323,61.0941984 68.6201548,61.1664934 C68.6942194,61.2398213 68.7308645,61.3131492 68.7308645,61.3895754 C68.7308645,61.454641 68.7017032,61.5444934 68.6420903,61.6583582 C68.5819613,61.772223 68.5528,61.861559 68.5528,61.9273992 C68.5528,61.9707762 68.5690581,61.9919484 68.6013161,61.9919484 L68.7040258,61.9919484 C68.9393806,61.9919484 69.4549935,61.6371861 70.2506065,60.9281779 L70.2506065,60.966391 C70.0986065,61.1393828 69.9484129,61.3113418 69.8000258,61.4817516 C69.5184774,61.7933951 69.3530581,61.9508951 69.3066065,61.9542516 L69.2900903,61.937727 L69.3066065,61.9160385 L69.3502194,61.89435 C69.3424774,61.8757598 69.3414452,61.8532967 69.3448,61.8238623 C69.1814452,61.9108746 68.9375742,62.033518 68.6124129,62.1933418 L68.6124129,62.2473049 C68.6663484,62.2473049 68.740671,62.2312967 68.8343484,62.2008295 C68.9282839,62.1703623 68.9989935,62.1551287 69.0462194,62.1551287 L69.0622194,62.1551287 C68.9752516,62.2924893 68.8051871,62.3616861 68.5528,62.3616861 C68.5017032,62.3616861 68.3989935,62.3265713 68.2431226,62.2584074 C67.9860903,62.1460918 67.8580903,61.9759402 67.8580903,61.7476943 C67.8580903,61.5669566 67.9004129,61.3908664 67.9855742,61.2189074 C68.0704774,61.0466902 68.1128,60.9552885 68.1128,60.9447025 C68.1128,60.8649197 68.0082839,60.8248992 67.7995097,60.8248992 L67.6968,60.8261902 L67.0186065,61.5052475 C66.8624774,61.6960549 66.6800258,61.9002885 66.4699613,62.117432 C66.4229935,62.2078008 66.3664774,62.2547926 66.3019613,62.2584074 L65.7912516,62.2958459 C65.7223484,62.3035918 65.6882839,62.2524689 65.6882839,62.1445426 L65.6882839,62.095227 C65.7200258,62.0118295 65.7762839,61.8966738 65.8562839,61.7476943 L66.3391226,61.0314566 C66.3391226,60.9627762 66.2913806,60.915268 66.1977032,60.8907393 C66.2304774,60.8576902 66.2777032,60.8109566 66.3391226,60.7492475 C66.4764129,60.6405467 66.6459613,60.4962148 66.8488,60.315477 C66.8560258,60.3072148 66.8653161,60.2953377 66.8758968,60.2767475 L69.6758968,56.5316041 C70.1450581,55.8987639 70.6552516,55.4760959 71.2057032,55.2669566 C71.1982194,55.2669566 71.1922839,55.264891 71.1894452,55.2612762 C71.1964129,55.2576615 71.2139613,55.2524975 71.2433806,55.2447516 C71.3231226,55.2341656 71.4438968,55.212477 71.6072516,55.1802025 C71.6281548,55.1765877 71.6506065,55.1709074 71.6717677,55.1636779 L71.6552516,55.1636779 C71.7313806,55.1419893 71.8906065,55.0616902 72.1334452,54.9230385 C72.324671,54.8151123 72.4931871,54.762182 72.6374452,54.762182 C72.8942194,54.762182 73.0227355,54.8713992 73.0227355,55.091641 Z M75.876129,59.9567127 C75.876129,59.7359545 75.8162581,59.6257045 75.6965161,59.6257045 L75.4905806,59.6257045 C75.2294194,59.6257045 75.0252903,59.6936102 74.8774194,59.8317455 C74.7646452,59.9327004 74.6369032,60.059475 74.4926452,60.2120693 L74.4926452,60.2766184 L74.5677419,60.2766184 C75.0312258,60.0630898 75.4663226,59.9567127 75.876129,59.9567127 Z M75.8596129,60.1521676 L75.8596129,60.1087906 L75.8214194,60.0700611 L75.6965161,60.0700611 C75.4689032,60.0700611 75.1824516,60.2203316 74.8397419,60.5208725 C74.0905806,61.1723029 73.7163871,61.6414463 73.7163871,61.9272701 C73.7163871,62.0106676 73.7367742,62.061016 73.7754839,62.0788316 C73.7979355,62.0788316 73.8250323,62.0811553 73.8578065,62.0868357 C73.8895484,62.0927742 73.9150968,62.095098 73.9334194,62.095098 C74.3060645,62.095098 74.7202581,61.8645283 75.1754839,61.4031307 C75.632,60.9417332 75.8596129,60.5242291 75.8596129,60.1521676 Z M77.1883871,61.1077537 C77.1883871,61.1289258 77.1246452,61.1976061 76.9989677,61.3132783 C76.872,61.4294668 76.7832258,61.5035693 76.7323871,61.5363602 L76.7323871,61.5528848 C76.7323871,61.5634709 76.7150968,61.5691512 76.6784516,61.5691512 C76.4650323,61.746016 76.2154839,61.9107455 75.9300645,62.062307 C75.8572903,62.095098 75.7545806,62.1475119 75.620129,62.2203234 C75.592,62.2383971 75.5772903,62.263184 75.5772903,62.295975 C75.5772903,62.339352 75.6247742,62.361557 75.7189677,62.361557 C75.7545806,62.361557 75.8056774,62.3481307 75.8725161,62.3230857 C75.9393548,62.2982988 75.9909677,62.2853889 76.0273548,62.2853889 C75.8828387,62.3687865 75.7630968,62.4098398 75.6694194,62.4098398 C75.608,62.4098398 75.4887742,62.361557 75.3114839,62.2665406 C75.1344516,62.1702332 75.0451613,62.0987127 75.0451613,62.0517209 L75.0451613,61.9050652 L75.0451613,61.7586676 C75.0100645,61.761766 74.8916129,61.8276061 74.6908387,61.9543807 C74.672,61.9290775 74.6379355,61.9161676 74.5876129,61.9161676 C74.3334194,62.0682455 74.0632258,62.1821102 73.7754839,62.2585365 L73.7754839,62.2853889 C73.7754839,62.3357373 73.8224516,62.361557 73.9174194,62.361557 C73.9491613,62.361557 73.9950968,62.3545857 74.0526452,62.3421922 C74.1104516,62.3292824 74.155871,62.3230857 74.1886452,62.3230857 C74.0864516,62.3811799 73.9925161,62.4098398 73.9063226,62.4098398 C73.4469677,62.4098398 73.2170323,62.1730734 73.2170323,61.6990242 C73.2170323,61.1699791 73.4565161,60.6817291 73.9362581,60.2332414 C74.4152258,59.7847537 74.9207742,59.5603807 75.4523871,59.5603807 L75.6588387,59.5603807 C75.7630968,59.5603807 75.8691613,59.7359545 75.9734194,60.087102 C75.9909677,60.1446799 76.0343226,60.1738561 76.1037419,60.1738561 C76.2985806,59.8482701 76.4085161,59.6768275 76.4345806,59.6579791 C76.4849032,59.6179586 76.6691613,59.5985939 76.987871,59.5985939 L76.7819355,59.9079135 L76.7819355,59.9835652 L76.9445161,59.9835652 L76.9445161,60.0700611 C76.6985806,60.3669873 76.4510968,60.6641717 76.2010323,60.961098 C75.8394839,61.416557 75.6588387,61.7222619 75.6588387,61.8779545 C75.6588387,61.9683234 75.6965161,62.0142824 75.7729032,62.0142824 C75.9458065,62.0142824 76.1886452,61.889057 76.4996129,61.6391225 C76.947871,61.2846184 77.1772903,61.1043971 77.1883871,61.0966512 L77.1883871,61.1077537 Z M80.8312516,58.360618 C80.8312516,58.4726754 80.7561548,58.5837 80.6054452,58.6942082 C80.4552516,58.805491 80.3208,58.8602287 80.2013161,58.8602287 L80.1801548,58.8220156 L80.1801548,58.6810402 C80.1801548,58.3910852 80.3331871,58.2467533 80.6413161,58.2467533 C80.7672516,58.2467533 80.8312516,58.2849664 80.8312516,58.360618 Z M79.4361548,61.7370566 C79.4149935,61.7615852 79.3768,61.7997984 79.3220903,61.8509213 L79.3220903,61.8134828 L79.4255742,61.7102041 L79.4361548,61.7207902 L79.4361548,61.7370566 Z M79.0137032,62.155077 C78.9982194,62.1798639 78.9659613,62.2149787 78.9156387,62.2583557 L78.8882839,62.2583557 C78.9138323,62.2149787 78.9478968,62.1798639 78.9912516,62.155077 L79.0137032,62.155077 Z M80.0111226,60.99345 C79.8338323,61.2826303 79.6733161,61.4868639 79.5288,61.6066672 L79.5288,61.5738762 C79.5288,61.5447 79.5071226,61.5304992 79.4637677,61.5304992 C79.4924129,61.5304992 79.3104774,61.6632123 78.9156387,61.9273475 C78.7202839,62.0574787 78.5290581,62.155077 78.340929,62.2201426 C78.2467355,62.2524172 78.1995097,62.2828844 78.1995097,62.3123189 C78.1995097,62.4026877 78.2627355,62.4486467 78.3894452,62.4486467 C78.4433806,62.4486467 78.5138323,62.4272164 78.6005419,62.3851303 C78.6880258,62.344077 78.7579613,62.3229049 78.8131871,62.3229049 C78.7189935,62.4496795 78.548929,62.5131959 78.3024774,62.5131959 C78.1721548,62.5131959 78.0457032,62.4514869 77.9228645,62.3288434 C77.7997677,62.2054254 77.7383484,62.0809746 77.7383484,61.9542 C77.7383484,61.8057369 77.9388645,61.4166344 78.340929,60.7871508 L78.340929,60.6841303 L78.2756387,60.6841303 C78.188929,60.7672697 78.0516387,60.8824254 77.8632516,61.0314049 C77.8482839,61.052577 77.8204129,61.0750402 77.7762839,61.0967287 L77.7762839,61.0802041 C77.7762839,61.0151385 77.9429935,60.8165852 78.2756387,60.4832533 C78.2720258,60.5338598 78.3060903,60.5596795 78.3788645,60.5596795 C78.6820903,60.3389213 78.8343484,60.1556016 78.8343484,60.0112697 L78.7853161,60.0112697 L78.5414452,60.2118885 L78.5414452,60.1739336 C78.6568,60.0399295 78.844671,59.8697779 79.1053161,59.6637369 C79.1414452,59.6451467 79.2426065,59.6361098 79.4090581,59.6361098 L79.5669935,59.6361098 C79.5558968,59.6650279 79.5251871,59.7177 79.4740903,59.7941262 C79.4418323,59.8447328 79.4255742,59.907991 79.4255742,59.9836426 C79.5269935,59.9836426 79.6085419,60.0053311 79.6697032,60.0489664 L79.1161548,60.7275074 C78.9644129,60.9116016 78.8131871,61.0967287 78.6604129,61.2810811 C78.4622194,61.5493475 78.3626065,61.7641672 78.3626065,61.9273475 C78.3626065,61.9849254 78.4059613,62.0141016 78.492671,62.0141016 C78.6593806,62.0141016 78.8322839,61.9343189 79.0137032,61.7747533 C79.2371871,61.6120893 79.5579613,61.351827 79.9737032,60.99345 L80.0111226,60.99345 Z M87.1593806,55.0769238 C87.1593806,54.9137434 87.0739613,54.8326697 86.9036387,54.8326697 C86.8205419,54.8326697 86.7028645,54.8708828 86.5518968,54.9465344 C86.384929,55.0335467 86.3018323,55.1091984 86.3018323,55.1742639 L86.3018323,55.212477 C86.3346065,55.212477 86.3808,55.2171246 86.4427355,55.2261615 C86.5041548,55.234682 86.5518968,55.2395877 86.5841548,55.2395877 C86.6091871,55.264891 86.6432516,55.2775426 86.6871226,55.2775426 C86.8422194,55.4655098 86.9312516,55.5594934 86.952929,55.5594934 C87.0140903,55.5594934 87.0669935,55.4923623 87.1103484,55.3591328 C87.1426065,55.2506902 87.1593806,55.1561902 87.1593806,55.0769238 Z M86.7524129,55.5594934 C86.7524129,55.4585385 86.7054452,55.3862434 86.6115097,55.3420918 C86.2793806,55.3420918 86.0881548,55.3686861 86.0375742,55.418518 C85.8786065,55.5607844 85.6620903,55.7756041 85.3882839,56.0619443 L82.7673806,59.1936123 L82.7650581,59.2669402 C82.8218323,59.2669402 82.8695742,59.2540303 82.9059613,59.2295016 C83.2275097,58.9981574 83.6780903,58.6570795 84.2564129,58.2091082 C84.4078968,58.0707148 84.6561548,57.8471164 84.9998968,57.5352148 L86.4811871,56.2005959 C86.6613161,56.0371574 86.7524129,55.8236287 86.7524129,55.5594934 Z M82.8024774,61.0046041 C82.7663484,61.0368787 82.7157677,61.0830959 82.6504774,61.1453213 L82.6342194,61.1347352 L82.7756387,60.9935016 L82.7918968,60.9935016 L82.8024774,61.0046041 Z M82.4551226,61.3131492 L82.3580903,61.4166861 L82.3309935,61.4166861 C82.3555097,61.3918992 82.3937032,61.3536861 82.4445419,61.3025631 L82.4551226,61.3131492 Z M80.680929,60.9281779 C80.6378323,60.9751697 80.5813161,61.0257762 80.5131871,61.0802557 L80.680929,60.9281779 Z M87.4306065,55.0823459 C87.4306065,55.306977 87.2928,55.56285 87.0179613,55.8481574 L86.2530581,56.6524402 C86.1802839,56.7391943 86.0517677,56.8731984 85.8675097,57.0539361 L84.6419613,58.0482516 L82.1895742,60.047727 C82.0739613,60.1417107 81.8860903,60.396809 81.6251871,60.8137967 C81.3862194,61.1899893 81.2195097,61.4799443 81.1258323,61.6831451 C81.1258323,61.693473 81.1240258,61.7071574 81.1211871,61.7229074 C81.1170581,61.739432 81.1152516,61.751309 81.1152516,61.7587967 C81.1152516,61.7763541 81.1188645,61.8086287 81.1258323,61.8561369 C81.1294452,61.9002885 81.1294452,61.9320467 81.1258323,61.9542516 L81.1691871,61.9919484 C81.4334452,61.9919484 81.7859613,61.8205057 82.2277677,61.4765877 L82.2546065,61.4765877 C82.1098323,61.6609402 81.9038968,61.8380631 81.6362839,62.0082148 C81.3392516,62.2008295 81.0935742,62.2958459 80.8982194,62.2958459 C80.6084129,62.2958459 80.4641548,62.1855959 80.4641548,61.9648377 C80.4641548,61.7665426 80.5622194,61.4670344 80.7573161,61.0691533 C80.7751226,61.0479811 80.7973161,61.0126082 80.8218323,60.966391 L80.832929,60.9552885 C80.832929,60.8935795 80.8078968,60.8636287 80.7573161,60.8636287 C80.8659613,60.7683541 81.0153806,60.6206656 81.2078968,60.4182393 L84.3000258,56.6723213 C84.4195097,56.5238582 84.7715097,56.2086 85.3583484,55.7255139 C86.1322839,55.0826041 86.6907355,54.762182 87.0339613,54.762182 C87.2979613,54.762182 87.4306065,54.8690754 87.4306065,55.0823459 Z M86.4068645,61.172432 C86.4068645,61.215809 86.384929,61.2374975 86.3415742,61.2374975 L86.3309935,61.2486 L86.3147355,61.2486 L86.3041548,61.2374975 C86.3217032,61.2227803 86.3475097,61.2018664 86.3797677,61.172432 L86.4068645,61.172432 Z M85.1537032,60.0487598 C85.1459613,60.0593459 85.1377032,60.0676082 85.1266065,60.069932 C85.1191226,60.0676082 85.1155097,60.0593459 85.1155097,60.0487598 L85.1155097,60.0428213 C85.1191226,60.0288787 85.1229935,60.0219074 85.1266065,60.0219074 L85.1320258,60.0219074 C85.1459613,60.0255221 85.1537032,60.0348172 85.1537032,60.0487598 Z M86.2383484,61.3131492 C86.0143484,61.5708295 85.6610581,61.79985 85.1805419,62.0030508 C84.7139613,62.1985057 84.304929,62.2961041 83.9549935,62.2961041 C83.4337032,62.2961041 83.1735742,62.0916123 83.1735742,61.6831451 C83.1735742,61.5057639 83.2386065,61.3319975 83.3691871,61.1618459 C83.4989935,60.9916943 83.6509935,60.9064893 83.824671,60.9064893 C83.8499613,60.9064893 83.8845419,60.9098459 83.9302194,60.9175918 C83.9753806,60.9248213 84.008929,60.9281779 84.0306065,60.9281779 L84.0306065,61.0585672 C84.0306065,61.1701082 83.9387355,61.3051451 83.7542194,61.4600631 C83.5694452,61.6154975 83.4773161,61.7587967 83.4773161,61.8891861 C83.4773161,62.0916123 83.5640258,62.1933418 83.7377032,62.1933418 C84.1444129,62.1933418 84.4909935,61.9625139 84.7777032,61.5034402 C84.8244129,61.4241738 85.0081548,61.0185467 85.3271226,60.28785 L85.3271226,60.1897352 L85.2620903,60.1897352 C84.9746065,60.4068787 84.6060903,60.6534566 84.1555097,60.9281779 L84.1330581,60.8636287 C84.2060903,60.7977885 84.3173161,60.6968336 84.4659613,60.559473 C84.4631226,60.6100795 84.4881548,60.6351246 84.5426065,60.6351246 C84.6120258,60.6351246 84.7598968,60.5447557 84.9862194,60.3635016 C85.2140903,60.1827639 85.3271226,60.0652844 85.3271226,60.0113213 C85.3271226,59.9643295 85.3031226,59.9421246 85.2561548,59.9454811 C85.2855742,59.9279238 85.4393806,59.8135426 85.7178323,59.6038869 C85.9568,59.4226328 86.1010581,59.3327803 86.1521548,59.3327803 C86.208929,59.3327803 86.2383484,59.3539525 86.2383484,59.3973295 C86.2383484,59.5171328 86.1573161,59.6309975 85.9942194,59.7394402 C85.7702194,59.891518 85.6471226,59.9818869 85.6259613,60.0113213 C85.6259613,60.1053049 85.6223484,60.2573828 85.6148645,60.4667803 C85.5965419,60.8282557 85.5694452,61.0750918 85.5330581,61.205223 C85.4791226,61.392932 85.3524129,61.6090426 85.1537032,61.850973 L85.1537032,61.9160385 C85.2760258,61.912682 85.6259613,61.7123213 86.200671,61.3131492 L86.2383484,61.3131492 Z M59.6430194,56.5420352 C59.5315355,56.7124451 59.3439226,56.9084164 59.0783742,57.1284 C59.3320516,56.8970557 59.5201806,56.701859 59.6430194,56.5420352 Z M61.0218581,56.1733303 C61.0218581,55.7062525 60.6634065,55.4731008 59.9470194,55.4731008 C59.809729,55.4731008 59.6907613,55.4854943 59.5890839,55.5113139 C59.8747613,55.6380885 60.0234065,55.7736418 60.0339871,55.9179738 L60.0339871,56.1358918 C60.0339871,56.5291254 59.7733419,56.9259738 59.2523097,57.3238549 C59.1514065,57.3920189 59.0123097,57.5035598 58.8345032,57.6551213 L59.0246968,57.6551213 C59.4226323,57.6551213 59.8435355,57.5105311 60.2884387,57.2205762 C60.7772129,56.8988631 61.0218581,56.5502975 61.0218581,56.1733303 Z M58.7431484,56.9388836 C58.7431484,56.8877607 58.7170839,56.8627156 58.6667613,56.8627156 C58.5836645,56.8627156 58.5119226,56.9037689 58.4525677,56.9871664 C58.3926968,57.0703057 58.3627613,57.1578344 58.3627613,57.2482033 L58.3627613,57.3238549 C58.3627613,57.3427033 58.3756645,57.3509656 58.4004387,57.3509656 C58.4626323,57.3509656 58.5346323,57.2993262 58.617471,57.1960475 C58.7008258,57.0932852 58.7431484,57.0070475 58.7431484,56.9388836 Z M58.4603097,57.682232 L58.4226323,57.682232 C58.3645677,57.7114082 58.2889548,57.7584 58.1950194,57.8234656 C58.1803097,57.8265639 58.1674065,57.8392156 58.1563097,57.8616787 C58.1746323,57.8428303 58.2342452,57.8146869 58.3359226,57.7746664 C58.4226323,57.7454902 58.4644387,57.7147648 58.4603097,57.682232 Z M58.1188903,57.9050557 L58.1188903,57.8939533 C58.1152774,57.8722648 58.1083097,57.8616787 58.097729,57.8616787 L58.0917935,57.8616787 C58.0773419,57.8616787 58.0693419,57.8722648 58.0693419,57.8939533 L58.0649548,57.9050557 C58.0683097,57.9192566 58.0755355,57.9262279 58.0858581,57.9262279 L58.097729,57.9262279 C58.1116645,57.9228713 58.1188903,57.9156418 58.1188903,57.9050557 Z M58.0425032,57.9321664 L58.0425032,57.9210639 C58.0388903,57.8991172 58.0319226,57.8887893 58.0213419,57.8887893 L58.0102452,57.8887893 C57.9991484,57.8887893 57.9921806,57.8991172 57.9885677,57.9210639 L57.9885677,57.9321664 C57.9921806,57.9538549 57.9991484,57.9649574 58.0102452,57.9649574 L58.0213419,57.9649574 C58.0319226,57.9649574 58.0388903,57.9538549 58.0425032,57.9321664 Z M57.9779871,57.9696049 L57.9779871,57.9538549 C57.9743742,57.935523 57.9668903,57.9262279 57.9563097,57.9262279 L57.9508903,57.9262279 C57.9356645,57.9262279 57.9284387,57.935523 57.9284387,57.9538549 L57.9284387,57.9696049 C57.9284387,57.9809656 57.9356645,57.9861295 57.9508903,57.9861295 L57.9563097,57.9861295 C57.9710194,57.9861295 57.9779871,57.9809656 57.9779871,57.9696049 Z M58.0265032,59.7777566 C58.0265032,59.3104205 57.7756645,59.0772689 57.2726968,59.0772689 C57.1532129,59.0772689 57.0063742,59.1025721 56.8332129,59.1531787 C56.6345032,59.211273 56.5088258,59.2799533 56.4582452,59.3597361 C56.697729,59.2399328 56.9392774,59.1800311 57.1859871,59.1800311 L57.4406968,59.1800311 C57.465729,59.1800311 57.5145032,59.1999123 57.5872774,59.2399328 C57.8185032,59.3703221 57.9521806,59.6344574 57.9885677,60.0325967 C58.0138581,59.9566869 58.0265032,59.8717402 58.0265032,59.7777566 Z M56.4966968,56.9388836 C56.4930839,56.9352689 56.4876645,56.9329451 56.4806968,56.9329451 C56.4332129,56.9329451 56.409729,56.9554082 56.409729,56.9982689 C56.409729,57.0016254 56.4138581,57.0034328 56.4208258,57.0034328 C56.4714065,57.0034328 56.4966968,56.9825189 56.4966968,56.9388836 Z M56.2523097,57.1444082 C56.2489548,57.1374369 56.2435355,57.1338221 56.2365677,57.1338221 L56.225471,57.1338221 C56.2182452,57.1413098 56.2143742,57.1500885 56.2143742,57.1614492 L56.2143742,57.1725516 L56.225471,57.1725516 L56.2365677,57.1725516 L56.2471484,57.1725516 L56.2523097,57.1725516 L56.2523097,57.1444082 Z M56.1498581,57.2482033 C56.145729,57.2407156 56.1405677,57.2371008 56.1333419,57.2371008 L56.1219871,57.2371008 C56.1152774,57.2448467 56.1108903,57.2536254 56.1108903,57.2639533 L56.1108903,57.2753139 L56.1274065,57.2753139 L56.1333419,57.2753139 L56.1498581,57.2753139 L56.1498581,57.2482033 Z M59.9305032,56.1240148 L59.9305032,56.0215107 C59.8696,56.1945025 59.7733419,56.3690434 59.6430194,56.5420352 C59.7663742,56.3473549 59.8277935,56.1516418 59.8277935,55.9561869 C59.8277935,55.7684779 59.6794065,55.6739779 59.3823742,55.6739779 C58.6086968,55.6739779 57.9052129,55.9809738 57.2726968,56.596773 L57.2726968,56.6071008 C57.2726968,56.6688098 57.3382452,56.8010066 57.4703742,57.0034328 C57.6025032,57.2066336 57.6683097,57.347609 57.6683097,57.4273918 C57.657729,57.4343631 57.6376,57.4436582 57.6081806,57.4542443 C57.4827613,57.2154123 57.3284387,56.9711582 57.1472774,56.7217402 L57.1366968,56.7382648 C57.0825032,56.7452361 56.8548903,56.9494697 56.4538581,57.3509656 C56.0665032,57.7385189 55.8634065,57.9515311 55.8458581,57.992068 L55.8071484,58.0677197 L55.8941161,58.0677197 C56.7046968,58.0677197 57.4933419,57.8634861 58.2597935,57.4542443 C58.2597935,57.0163426 58.4298581,56.7973918 58.7699871,56.7973918 C58.7957935,56.8263098 58.8076645,56.8733016 58.8076645,56.9388836 C58.8076645,57.0762443 58.6796645,57.2559492 58.4226323,57.4754164 L58.5036645,57.5518426 C58.6086968,57.5048508 58.7441806,57.413191 58.9108903,57.2753139 L59.0783742,57.1284 C58.977729,57.2231582 58.8275355,57.3638754 58.6285677,57.5518426 L58.601729,57.5786951 L58.601729,57.6169082 C58.8874065,57.4872934 59.169471,57.2804779 59.4481806,56.9982689 C59.769729,56.6688098 59.9305032,56.3778221 59.9305032,56.1240148 Z M57.8476645,59.9726951 C57.8476645,59.5639697 57.6559226,59.3597361 57.2726968,59.3597361 C57.0626323,59.3597361 56.8714065,59.4136992 56.697729,59.5229164 C57.1748903,59.565777 57.4133419,59.7700107 57.4133419,60.1356172 C57.4133419,60.4973508 57.2110194,60.863732 56.8058581,61.2324369 C56.4806968,61.5329779 56.113471,61.7676787 55.7044387,61.9378303 L55.7426323,61.9378303 C56.1766968,61.9378303 56.6345032,61.7206869 57.1155355,61.2864 C57.6037935,60.8379123 57.8476645,60.3997525 57.8476645,59.9726951 Z M55.6288258,62.0844861 L55.6288258,62.0733836 C55.625471,62.0516951 55.6159226,62.041109 55.601729,62.041109 L55.5957935,62.041109 C55.5852129,62.041109 55.5782452,62.0516951 55.5741161,62.0733836 L55.5741161,62.0844861 C55.5782452,62.1056582 55.5852129,62.1175352 55.5957935,62.1175352 L55.601729,62.1175352 C55.6159226,62.1175352 55.625471,62.1056582 55.6288258,62.0844861 Z M57.3372129,60.1521418 C57.3372129,59.8012525 57.1588903,59.6256787 56.8004387,59.6256787 C56.6590194,59.6256787 56.5650839,59.6380721 56.5183742,59.6638918 C56.4208258,59.7178549 56.2670194,59.9055639 56.0569548,60.2277934 C55.8471484,60.550023 55.7426323,60.7614861 55.7426323,60.863732 C55.7426323,61.01865 55.8781161,61.0966254 56.1498581,61.0966254 C56.2107613,61.0966254 56.2964387,61.0726131 56.4043097,61.0256213 C56.5129548,60.9786295 56.5978581,60.9551336 56.6590194,60.9551336 C56.5511484,61.1183139 56.377471,61.1993877 56.1387613,61.1993877 C56.0084387,61.1993877 55.8546323,61.1394861 55.6776,61.0209738 C55.601729,61.1911254 55.5630194,61.4493221 55.5630194,61.7971131 C55.5630194,61.8438467 55.5671484,61.8833508 55.5741161,61.9161418 C55.9692129,61.7888508 56.3465032,61.5657689 56.7083097,61.2427648 C57.1271484,60.8707033 57.3372129,60.5066459 57.3372129,60.1521418 Z M58.4004387,57.6169082 L58.3248258,57.5518426 L58.3088258,57.5518426 C57.8525677,57.7726008 57.4151484,57.9479164 56.9957935,58.0788221 C56.6773419,58.1764205 56.225471,58.2396787 55.6391484,58.2685967 C55.505729,58.3770393 55.417471,58.480318 55.3736,58.5779164 L55.4874065,58.5779164 C56.5005677,58.5779164 57.4716645,58.2580107 58.4004387,57.6169082 Z M54.1803097,58.8983385 L54.1044387,58.8983385 C54.0786323,58.8983385 54.0587613,58.9011787 54.0448258,58.9089246 C54.0587613,58.927773 54.0822452,58.935777 54.1150194,58.935777 L54.1315355,58.935777 C54.1679226,58.935777 54.1926968,58.927773 54.2074065,58.9089246 L54.2182452,58.9089246 C54.2074065,58.9011787 54.1950194,58.8983385 54.1803097,58.8983385 Z M56.8275355,56.3520025 L56.8275355,56.3414164 C56.8275355,56.294941 56.7717935,56.2221295 56.6590194,56.1240148 C56.1204387,55.6463508 55.6453419,55.4292074 55.2321806,55.4731008 L55.2920516,55.4292074 C55.1650839,55.4044205 54.9738581,55.3915107 54.7170839,55.3915107 C54.5586323,55.3915107 54.3880516,55.4984041 54.2074065,55.712191 L54.2231484,55.712191 C54.3286968,55.712191 54.4776,55.6757852 54.6711484,55.6034902 C54.8646968,55.5311951 55.017471,55.4947893 55.129471,55.4947893 L55.1676645,55.5113139 C54.6755355,55.6380885 54.3645677,55.7426582 54.2342452,55.8260557 C53.9630194,55.9962074 53.8275355,56.2742852 53.8275355,56.6618385 C53.8275355,56.9693508 53.9274065,57.2394246 54.1256,57.4730926 C54.3253419,57.7067607 54.5779871,57.8580639 54.8853419,57.9262279 C55.5256,57.267568 56.1733419,56.7429123 56.8275355,56.3520025 Z M54.7170839,62.1175352 C54.2868903,61.964941 54.0151484,61.7604492 53.9034065,61.5035434 C53.8711484,61.4276336 53.8146323,61.3132525 53.7348903,61.1619492 C53.7348903,61.180023 53.7338581,61.20765 53.7302452,61.2458631 C53.7261161,61.283818 53.7243097,61.3096377 53.7243097,61.3243549 C53.7243097,61.5668016 53.8030194,61.7594164 53.9601806,61.9027156 C54.1176,62.0457566 54.3191484,62.1175352 54.5656,62.1175352 L54.7170839,62.1175352 Z M54.0058581,58.8712279 C53.6048258,58.8025475 53.2505032,58.6236172 52.9428903,58.3336623 L52.9428903,58.3718754 C53.2830194,58.7116623 53.6197935,58.8820721 53.9519226,58.8820721 C53.9702452,58.8820721 53.9883097,58.8784574 54.0058581,58.8712279 Z M52.9428903,58.3119738 L52.9428903,58.3008713 C52.9392774,58.2796992 52.9323097,58.2685967 52.921729,58.2685967 L52.9160516,58.2685967 C52.9010839,58.2685967 52.8943742,58.2796992 52.8943742,58.3008713 L52.8943742,58.3119738 C52.8943742,58.3259164 52.9010839,58.3336623 52.9160516,58.3336623 L52.921729,58.3336623 C52.9359226,58.3300475 52.9428903,58.3230762 52.9428903,58.3119738 Z M54.7552774,58.0894082 L54.7170839,58.0677197 C54.0554065,57.6223303 53.7243097,57.1614492 53.7243097,56.6830107 C53.7243097,56.6107156 53.7431484,56.5051131 53.7813419,56.3659451 C53.8195355,56.226777 53.8381161,56.1206582 53.8381161,56.0483631 C53.6252129,56.1206582 53.3945032,56.3308303 53.1465032,56.6783631 C52.8987613,57.0258959 52.7751484,57.313527 52.7751484,57.5412566 C52.7751484,57.6027074 52.7963097,57.662609 52.8401806,57.7207033 C53.0061161,57.9479164 53.2290839,58.1397566 53.5072774,58.2959656 C53.8004387,58.4581131 54.0804387,58.5402197 54.3485677,58.5402197 L54.4401806,58.5402197 C54.4471484,58.5402197 54.4987613,58.4723139 54.5950194,58.3359861 C54.6912774,58.2009492 54.7441806,58.1188426 54.7552774,58.0894082 Z M54.3756645,55.4080352 L54.3485677,55.4080352 C53.9072774,55.4080352 53.5119226,55.5706992 53.1630194,55.8965434 C52.8138581,56.2221295 52.6388903,56.6042607 52.6388903,57.0416459 L52.6388903,57.2482033 L52.6776,57.313527 C52.8112774,56.8425762 53.0696,56.4534738 53.4533419,56.1464779 C53.5906323,56.0700516 53.7823742,55.943277 54.0283097,55.7661541 C54.1044387,55.6868877 54.2195355,55.5676008 54.3756645,55.4080352 Z M61.1836645,56.2492402 C61.1836645,56.691273 60.945471,57.0703057 60.4677935,57.3891787 C60.0373419,57.6786172 59.5903742,57.8234656 59.1279226,57.8234656 C59.0698581,57.8234656 58.9834065,57.8170107 58.8672774,57.8041008 C58.7519226,57.791191 58.6631484,57.7852525 58.601729,57.7852525 C58.2037935,57.992068 57.9052129,58.1397566 57.7067613,58.2303836 C57.3160516,58.4144779 57.0136,58.5342811 56.8004387,58.5890189 C56.7101161,58.6176787 56.5743742,58.6558918 56.393729,58.7023672 C56.1003097,58.7576213 55.6665032,58.8384369 55.0912774,58.9468795 C54.6394065,59.493482 54.4130839,60.1250311 54.4130839,60.8412689 C54.4130839,61.5833262 54.7114065,61.9543549 55.3083097,61.9543549 C55.3119226,61.9543549 55.321471,61.9512566 55.3356645,61.9460926 C55.3506323,61.9401541 55.3625032,61.9378303 55.3736,61.9378303 C55.3846968,61.4565516 55.4422452,60.9768221 55.5472774,60.4996746 C55.5795355,60.3876172 55.6228903,60.2190148 55.6776,59.9949 L55.6776,59.9726951 C56.0680516,59.3328836 56.5955355,59.0122033 57.2616,59.0122033 C57.8843097,59.0122033 58.1950194,59.2975107 58.1950194,59.8699328 C58.1950194,60.1374246 58.1010839,60.4304779 57.9121806,60.7490926 C57.4858581,61.4841787 56.7065032,61.9742361 55.5741161,62.2202975 C55.5994065,62.3687607 55.6409548,62.5895189 55.6992774,62.8823139 C55.6992774,62.8851541 55.7010839,62.8910926 55.7044387,62.8983221 C55.7044387,62.9386008 55.6956645,62.9675189 55.6776,62.9855926 C55.6592774,62.988691 55.6463742,62.9768139 55.6391484,62.9476377 C55.5888258,62.7878139 55.5201806,62.5458836 55.4332129,62.2202975 C55.3320516,62.1949943 55.1965677,62.1820844 55.0262452,62.1820844 C54.9834065,62.1820844 54.9170839,62.188023 54.8285677,62.2009328 C54.7392774,62.2138426 54.673471,62.2202975 54.6301161,62.2202975 C54.3049548,62.2202975 54.0448258,62.1193426 53.849471,61.9161418 C53.6538581,61.712941 53.5565677,61.4493221 53.5565677,61.1237361 C53.5565677,60.9786295 53.6391484,60.6277402 53.8058581,60.0700352 C53.9648258,59.5417648 54.0863742,59.1893262 54.1689548,59.0122033 C53.6662452,58.9941295 53.2579871,58.8079697 52.9428903,58.4534656 C52.6283097,58.0981869 52.4711484,57.6657074 52.4711484,57.1555107 C52.4711484,56.7142525 52.601471,56.3359943 52.8621161,56.0215107 C53.0788903,55.7532443 53.4262452,55.5361008 53.9034065,55.3703385 C54.001471,55.3339328 54.1021161,55.3122443 54.2074065,55.3047566 C54.2182452,55.3047566 54.4530839,55.2448549 54.9124387,55.125568 C55.1764387,55.0571459 55.4151484,55.0222893 55.6288258,55.0222893 C56.1746323,55.0222893 56.5743742,55.1932156 56.8275355,55.5324861 C56.8783742,55.6016828 56.9031484,55.6708795 56.9031484,55.7390434 L56.865471,55.7390434 C56.6884387,55.3300598 56.2757935,55.125568 55.6288258,55.125568 C55.3648258,55.125568 55.1514065,55.1601664 54.9880516,55.2291049 C55.5852129,55.4131992 55.9431484,55.5324861 56.0628903,55.5877402 C56.3080516,55.7026377 56.6197935,55.9233959 56.9957935,56.2492402 C58.1785032,55.6773344 59.1372129,55.3915107 59.8714065,55.3915107 C60.7459871,55.3915107 61.1836645,55.6773344 61.1836645,56.2492402 Z" id="Fill-38" fill="#000000"></path>
            </g>
        </g>
    </g>
</svg>