<?xml version="1.0" encoding="UTF-8"?>
<svg width="39px" height="38px" viewBox="0 0 39 38" version="1.1" xmlns="http://www.w3.org/2000/svg" xmlns:xlink="http://www.w3.org/1999/xlink">
    <!-- Generator: sketchtool 49.3 (51167) - http://www.bohemiancoding.com/sketch -->
    <title>E109A45F-D953-4683-90A9-96AC9EA1D9AC</title>
    <desc>Created with sketchtool.</desc>
    <defs></defs>
    <g id="Symbols" stroke="none" stroke-width="1" fill="none" fill-rule="evenodd">
        <g id="footer/button/icon/phone-call" fill="#4A4A4A">
            <path d="M32.0999576,24.1137604 C30.8054875,22.7705735 29.1220156,22.7705735 27.7731878,24.1137604 L24.741023,27.1332444 C24.4601971,27.4123586 24.233594,27.4659517 23.8990847,27.3049036 C23.2841541,26.9182001 22.5502569,26.6385486 21.9353263,26.2413683 C19.0110677,24.3928746 16.5400153,22.0396113 14.3497887,19.3638488 C13.2812474,18.020662 12.3318075,16.623882 11.6521332,15.0015809 C11.5440921,14.6684706 11.5440921,14.4962741 11.8243785,14.2171598 C12.8929198,13.2606765 13.8423597,12.2612112 14.8565433,11.2511347 C16.2597288,9.85448903 16.2597288,8.23165071 14.8565433,6.83487073 L12.4397137,4.4276113 C11.5977754,3.58973136 10.81006,2.75131414 9.96866123,1.96689304 C8.67365169,0.677702321 6.99017975,0.677702321 5.64135197,1.96689304 L2.60918714,4.98651134 C1.64909153,5.94299468 1.15285779,7.06052612 1.0337563,8.33910565 C0.861510995,10.4132548 1.36826559,12.4222593 2.10229766,14.3782079 C3.62337074,18.4613616 5.92217791,21.9861524 8.67365169,25.284885 C12.4397137,29.7656219 16.9283428,33.2904128 22.1619294,35.8047242 C24.5249408,36.9222556 26.9423099,37.814266 29.5214035,37.9857909 C31.3771208,38.0933802 32.9525516,37.5990875 34.2365007,36.1914277 C35.078439,35.1813512 36.0927575,34.3434712 36.9883792,33.3974648 C38.3372069,32.0008191 38.3372069,30.3243876 36.9883792,28.9812008 L32.0999576,24.1137604 Z" id="phone-call"></path>
        </g>
    </g>
</svg>