<?xml version="1.0" encoding="UTF-8"?>
<svg width="39px" height="38px" viewBox="0 0 39 38" version="1.1" xmlns="http://www.w3.org/2000/svg" xmlns:xlink="http://www.w3.org/1999/xlink">
    <!-- Generator: sketchtool 49.3 (51167) - http://www.bohemiancoding.com/sketch -->
    <title>9BC35E08-E0EF-48ED-953F-77B56B50B86C</title>
    <desc>Created with sketchtool.</desc>
    <defs></defs>
    <g id="Symbols" stroke="none" stroke-width="1" fill="none" fill-rule="evenodd">
        <g id="footer/button/icon/send-mail" fill="#4A4A4A">
            <path d="M36.9296836,10.4959621 C38.0707202,9.6428022 39,10.1031278 39,11.5152545 L39,30.423215 C39,31.8370722 37.8309625,33 36.4029168,33 L2.59708324,33 C1.16903747,33 0,31.8370722 0,30.423215 L0,11.5152545 C0,10.1031278 0.929279785,9.6428022 2.07206641,10.4959621 L17.4253085,22.0214075 C17.9993269,22.4471222 18.751851,22.6565184 19.5043751,22.6495962 C20.248149,22.6565184 21.0006731,22.4471222 21.5746915,22.0214075 L36.9296836,10.4959621 Z M3.08359883,7.59556467 C1.96181288,6.71644661 2.21557101,6 3.64361678,6 L35.3563832,6 C36.786179,6 37.0381871,6.71644661 35.9164012,7.59556467 L21.8687009,18.6001154 C21.2264303,19.1002436 20.3514023,19.316562 19.4973749,19.2767594 C18.6485977,19.316562 17.7665694,19.0933214 17.1312991,18.6001154 L3.08359883,7.59556467 Z" id="Fill-2"></path>
        </g>
    </g>
</svg>